<mxfile host="Electron" modified="2024-02-07T15:30:23.398Z" agent="Mozilla/5.0 (Windows NT 10.0; Win64; x64) AppleWebKit/537.36 (KHTML, like Gecko) draw.io/21.6.1 Chrome/112.0.5615.204 Electron/24.6.1 Safari/537.36" etag="Y6S3rapNhuzfDvwQa0KS" version="21.6.1" type="device">
  <diagram name="Page-1" id="1fxBgzhkZSym5tAGcDb-">
    <mxGraphModel dx="1500" dy="1987" grid="1" gridSize="10" guides="1" tooltips="1" connect="1" arrows="1" fold="1" page="1" pageScale="1" pageWidth="850" pageHeight="1100" math="0" shadow="0">
      <root>
        <mxCell id="0" />
        <mxCell id="1" parent="0" />
        <mxCell id="e3uVdYMobHJducTgOgBb-1" value="" style="shape=image;verticalLabelPosition=bottom;labelBackgroundColor=default;verticalAlign=top;aspect=fixed;imageAspect=0;image=data:image/png,iVBORw0KGgoAAAANSUhEUgAAAPAAAAB4CAYAAADMtn8nAAAAAXNSR0IArs4c6QAAAARnQU1BAACxjwv8YQUAAAAJcEhZcwAAEnQAABJ0Ad5mH3gAABIwSURBVHhe7Z1PaBtH38e/fntoaJM2hRYHSkMPkg9GrZGTFLqil0BpJR8eJ3Fl00suRSa5WJSGJMV5Hx5i2qcEisxDXeybb4maOj5UK0rguVmF5k1SE+GDpZbSHho/FNqSUNI8BL0zs7PS7D/tyl7JXuf3gSEzs6vZ+c3Ob+Y7I8XT12CAIIhI8j/yX4IgIgg5MEFEGHJggogw5MAEEWHIgQkiwpADE0SEIQcmiAjj+z3w1StXcOv2/8lUe8beGcfwocMyRRBEt/F14A/PncE/Ln4kU978/cKH4l9yYoLoHaFK6NHjY7j6BZuxbwabsQmC2BqhOnAyOUxOTBA9JPRNLHJigugdnmvgU0uf4PLtr2XKnfGhN/Gvv30g4teWruK727dEXOWjf16SMYIgwsZzBvZzXs6V1esyBhxjsy7f7FJDEOqzKfRNlmXKSnmyD6nZejPe7j7jWh2zqT643laeRF9qlt3hjSinzyN4PLsXiDay1GcS21ebrWG0cXfqH6yPqLTpLwqWfuHTh3qNr4Q+pZ3Abxf/jXeTb+Pg/gMifu7oSXm1d6RHc8DCssuLL2N5AciNpmV686TnG+CChAedPQ45vZluzG+9/M4xOlg8n4Bu1oMHHVgO6gEBBq5eYrTxPLrRmp30EcMp48hXZIYHfPDMVAuoibavoYA84ts4mNvxdeDPK1+ievd74bRzJ87i5983RJ6dY6tzeP3bj0W4+MNXMjdE0qPIYcHZccvLLDeHEPx3x1GfPcm6C+88tg6fnse2jCc7naB9hA1qmYUcGxR1ltuOMi4xD89NTyEm0jFMLRagLcxACsNtJ9Am1nn9M7y0vx+pl4dE/I8H9+WVFhP9R7A0dBrJfQeh/3pH5oZJGsYAa307ZWNo7cqIbqE+i5QqY11mNbvUKtuXB3w2bJaR8ukE9s7jQZt6ifpkWPtU2KzBryl1scpyZ118bWE4pL3luilPy5gU1w3ZzMs1l0UmbevSUZsF7CNsAAykAurrqNonh9gAEqhgrSbTNuxt0mwSFztEG7u1aQeKKdRdaD7z3n/0QKbCxymR6livhiOf/aiX1pCtmTLWKaX4y2hJLRam15BR9Rl3tEwVBbMMPSsveBBQWbSrl5CrfC2gyXrJaZt3kngx26qrnkA+3lqX+trCEGVYpD17djXj6JDVmWUMivq5O0zbunTaZoxQ+0htDRVtEHGZNIhjUJNRG442qRUwaFxwtUPUtbquOGsdpWKAQVvB14Gf3bMXc8fPYuXHVRF4nOepXLl7A5c3bmDkhVfw3otvyNwOWGAvXhm1zMAnDwtCIlWxblpcL6FY6Y18jk3NY6rZqkxKTauNz9dYGgqLSsOzUV6soy0kMGDekJ5Syts87evlBp/ZYavrGRQ0U3oGsUWWUVOd0pSXtjVo9kwbO/3qwumwzXrUR6rNB5hIxaQrbRJj9W0mXOzgda0UUdpCXX0dmK99uXzm0pmHZ/Y87djEWv9zA/ueeBIjz7+KW/d+krkdoG4WKcHpAFwiVVCUFtdLRVR6IZ8lQt6YA4w6ugippbwgSVwdqmMjyLKOmWGftU1SW8azXm6Imb3CZjl5vwjKZk4QW0QZznsMeak4DyPhuEnBry6barPe9BGHXe0Uk6cdW6+rrwNzp33uwlHc+aUuAo/zPJWJA0dw79FfePPmp9jLHLmbcNlRKZbYDCPlhkuLOUfHrWKs46xSTxlduNSSUW/YDLXCPsdkVTXDO6rPVynxQWg2Z3DiUy9P+AaOvF8JQmEHsiVM2tSl0zaTBOkjgamswbrcrWGt4wbytmOrdfV04InkWzLmDf8hByf+VD+uDZ3G9UPvCwn9zWvnRX5XMGVH2U1uxDCS1VibO3cYxEZGYqAl1TpBbmboKy2pV+cLKxMPZ6u5vWkmq1b4epGNyDPtdmTEqM1mp0ttuqxfvdzwGxiC2OJVhsfs7UmgQYoRtM1M2vaRDrDLcY5sc0eZQWxxs2OrdWWjXVvOn/2g8fDhw00F/lk/agWtwSS0TFlhk0lDYyt/OzyfV931c7VCg4m9huWSnmP3aw2XojwRzzALEWUqn5fPgFZoGFm1RkFT0wzxTKUMlm7VybjfrfpW9AabT63lcsyyfOvFEPXIsZJaGO2n5rH65DqwheFaBvtc632522h/p23rsqk2MzDKtdbZidG+lltsbSrKsb3nZv3d7lVtYdcLPOFjh2gTTXPt635E0oF5g/CX4/luzI7cDJ05L0e8DOUBop5mefyF8jpYHMt4Mc172GctttnqFPxl2crlQXluR/VS7DE6WytY6+Nji8TybI8ybB9xfaeeddl0mzH8+ojA34E5lvqpN/vda17zs0PUtfM+ytl2B97NuHXWqLKbbNlNhPo9cDQwf1jgDKHuDstf+0y3/d6jR3XZKoFs6RURabMeEeqf1LEznDyMsfFxmdrdiB8/WL7B4burAX7tswPZTbbsduhsJIKIMI+hhCaI3QM5MEFEGHJggogw5MAEEWHIgQkiwpADE0SEIQcmiAhDDkwQEYYcmCAiDDkwQUQYcmCCiDDkwAQRYciBCSLCkAMTRIQhByaICEMOTBARhhyYICIMOTBBRBhyYIKIMOTABBFhQv2rlGPvjGP40GGZIgii2/g68IfnzuAfFz+SKW/+fuFD8S85MUH0jlAl9OjxMVz9gs3YNzf3d6QJguiMUB04mRwmJyaIHhL6JhY5MUH0Ds818KmlT3D59tcy5Q4/H/hff/tAxK8tXcV3t2+JuMpH/7wkYwRBhI3nDOznvJwrq9dlDDjGZl2+2aWGINRnU+jzOJWKn9GTkgch83i7+4xrdcymPA65Kk+iLzXL7vBGlONyaJYImzw5yygz2MnyXgSzXaVNOyhY7PVpG2Jn4iuhT2kn8NvFf+Pd5Ns4uP+AiJ87elJe7R3p0RywsOziCGXww/dzmz6GvUV6Xhy3KoLOHoec3kw35jdXvlHm1g4G68R2wynjyCsH6rvBB85MtYCasK+GAvKIb3KQIrYPXwf+vPIlqne/F047d+Isfv59Q+TZObY6h9e//ViEiz98JXNDJD2KHBawbO9j5WWWm0MI/rtzCWq7PAZUb+gstx1lXGIenpuegnFgaAxTiwVoCzOQgoeICIE2sc7rn+Gl/f1IvTwk4n88uC+vtJjoP4KlodNI7jsI/dc7MjdM0jAmImsvLhtTUA+OvjRlqXk+rZTF9VmkTBnqIkX5jGguA1plGP8an0kFcJqAtqfng8329XVU7YNebAAJVLBWk2kbYqmj2NmcrPnSpJlv2OIm68XnSaaHTqi70Hzmvf/ogUyFj1NK1rFeDUc+B6U6s4zBWksW10tryIp0cCm6kGFLkEXjM3qugvxJ/44dqu21NVS0QcRl0iCOQU1GbXDni+cTbGaXdtYKGDQuIJWpomDar2fF/aKu1XXFpjpKRXXGJ8LC14Gf3bMXc8fPYuXHVRF4nOepXLl7A5c3bmDkhVfw3otvyNwOWMgoo3grWA+ZZggpWcW62TPqJRQrPZbP2TNQD6qPTc0raSZFp+2d14lWWGx+Jn2GSdfKGjwmvhY9sr3afICJlNu6MrPHpjDVTCQwYNqfZvk8zutaKaK0ne/pMcHXgfnal8tnLp15eGbP045NrPU/N7DviScx8vyruHXvJ5nbAepmkRLERpIFLiUrKMqeUS8VUemJfG6RaPbWFhZ56Rh1nDjLUBzTk97Y7qhbuz2G2Aiy2gIyzG6r6Nj+9/S44OvA3Gmfu3AUd36pi8DjPE9l4sAR3Hv0F968+Sn2MkfuJlyeVYolNsNJWebSs5yzSLcw1sPxYlbu5rLgHHVCI4jtgXHM+jWs+excO2GKY4XZzCR1NcMHsNbXZaHWlfDE04Enkm/JmDf8hxyc+FP9uDZ0GtcPvS8k9DevnRf5XcGUZ2U3WRbDSFZjfdMpSMWGT2Ig3DWY3AzSV1pruzpfmHaLtrZ3gF2Oc9w2tjjxQWh+CoFJ6hW+/mez8Yy5IxdWXYm2eDrw52yty7/zPfXfQ/jP/37tGsxfYfUWQ57lM3lXWRYbyUJja2qLpBNfr2gonOlGL1LXpbM46fcF7JZob3tbxG65ueMty2luntUxezIP1kBGmeq9zDmn+b1x5cco7PosT7B2te/XtSS4lNEzxVa5ROj4SuidiNjlZLjKMj4bNCWduS7lO6Urls2nUGDPWiyAdW75HL653EUJzWlrewfwH5joiTzioo3iyCd0rHg0kLg3Z6x1hZ1x5pR8C5vNzq12jqOYrUH9vYuQ0Ww8y46E3fCESWj/H9gN/n+E6bfQBNE9IjkDbw3zhxjO4PP1bZfZqfUidjKh/kkdO8PJwxgbH5cpgiDCxteBCYLYuTyGEpogdg/kwAQRYciBCSLCkAMTRIQhByaICEMOTBARhhyYICIMOTBBRBhyYIKIMOTABBFhyIEJIsKQAxNEhCEHJogIQw5MEBGGHJggIgw5MEFEGHJggogw5MAEEWHIgQkiwpADE0SECfWvUo69M47hQ4dliiCIbhPaH3bnf8SdQ05MEL0jVAk9enwMV79gM/bNzf0daYIgOiNUB04mh8mJCaKHhL6JRU5MEL3Dcw18aukTXL79tUy5w88HNo8YvbZ0Fd/dviXiKnS4GUF0D88Z2M95OVdWr8sYcIzNunyzSw1BqM+m0Odxeld5sg8peWA0j7e7z7hWx2zK4zCw8iT6UuZ5uO4Ee0Z71Dp70flz2tilID5rHormYyuxO/CV0Ke0E+Kg73eTb+Pg/gMifu7oSXm1d4hzcReWW4dMNymDH76/1fNyOb14BqeT5xhOGYffueF8IMxUC6gxQdXgp+Ujj3iAAYeINr4O/HnlS1Tvfi+cdu7EWfz8+4bIs3NsdQ6vf/uxCBd/+Ermhkh6FDksYNneJ8vLLDeHUHyrF8/gBH0OUw2ZhRz0hs5y21HGJebhuekpGEdpxzC1WIC2MCNP5Cd2K4E2sc7rn+Gl/f1IvTwk4n88uC+vtJjoP4KlodNI7jsI/dc7MjdM0jAmLmuvLxtTFrsaBgGeUZ9FSjm7d3NSNaAt6Xk2m87721ZfR9U+wMQGkEAFazWZtiGWLoodzcmaLzWa+SkxALjJevF5kunbTqi70Hzmvf/ogUyFj1N61rFeDU/acvyeUS+tIVvjMnVrUjVUW2prqGiDiMukQRyDmoza4M4XzyfYzC7tqBUwaFxAKlNFwbRPz4r7RV2r64qz1lEqqjM+sV34OvCze/Zi7vhZrPy4KgKP8zyVK3dv4PLGDYy88Aree/ENmdsBCxll1G+FDJuQLAjpWcW62ZPqJRQrIUpbjs8zYlPzmGr2WiZVp+2dOyC9sIVRbT7ARMptXZnZY1OYaiYSGDDtS7N8Hud1rRRR6nJdic7xdWC+9uXymUtnHp7Z87RjE2v9zw3se+JJjDz/Km7d+0nmdkBOlzOaNejMN6xw6VlBUfakeqmISmjy2cT/GRb56RhlgtILW5g7Nr1R0m49HxtBVltAhtllFRW9qSvROb4OzJ32uQtHceeXugg8zvNUJg4cwb1Hf+HNm59iL3PkbsLlXKVYYjOelHEuPdE563SG9zPKmGSdO17Myt1eFpyjTGCC2BKYyhqsy90a1nx2rp0wRbHCbGKSuprhA9RkU+KHWlciNDwdeCL5lox5w3/IwYk/1Y9rQ6dx/dD7QkJ/89p5kd8VTDlXdpNxMYxkNdaXnTs3YoMoMRBszeb1DLlZpK+01n51vnDdLG1t6QC7HOe4bWxx4oPQ7PfaYZJ6ha/v2Ww8Y25jh1VXIlzYLNKW82c/aDx8+HBTgX/Wj1pBazAJLVNW2OTW0ApsrrPB83nVXT9XKzQ0ds1ySc+x+7WGS1GeuD5DlK2UI58FrdAws7zq7EVbW5roDTbPW22y1UWU06xHrVHQlHq43YscK1XCrhd4grVT6xlGGeozhW2a1pF9RHcJdRe6V4hdUYarjOOzR1MCmutUvrO6omw++eP6DFb2YgHIx2W5J4FF1qu3QltbOiA934CeyCMubI4jn9Cx4mGwuDdnrHWFHfEi37QWs3Or3eIoZmuYV6olZDST5dmRDhqS6Cqh/X9gN/j/EabfQhNE94jkDLw1jI2o5uyshHB/edir5xCPM6H+SR07w8nDGBsflymCIMLG14EJgti5PIYSmiB2D+TABBFhyIEJIsKQAxNEhCEHJogIQw5MEBGGHJggIgw5MEFEGHJggogswP8DrkAuKa428U4AAAAASUVORK5CYII=;" vertex="1" parent="1">
          <mxGeometry x="130" y="220" width="240" height="120" as="geometry" />
        </mxCell>
        <mxCell id="e3uVdYMobHJducTgOgBb-2" value="" style="shape=image;verticalLabelPosition=bottom;labelBackgroundColor=default;verticalAlign=top;aspect=fixed;imageAspect=0;image=data:image/png,iVBORw0KGgoAAAANSUhEUgAAAPMAAADYCAYAAAA+ndXKAAAAAXNSR0IArs4c6QAAAARnQU1BAACxjwv8YQUAAAAJcEhZcwAAEnQAABJ0Ad5mH3gAABZlSURBVHhe7Z2/cuO2FoeP74ukMbfIuE0jPYG0zRYZtdvJpd1st6U7N1Jpd9s6jZulitSrJ9BsZkIVyRvkDXQPQIAiQYAE/0giod83l3NDigRB8BwSgFefbna73eGvv/4iAMC4ufnvv/8Of/75J/3+++9qEwDD4t9//6VffvlFrQEX/1P/DwAYOUhmAAIByQxAICCZAQgEJDMAgWBJ5j2tpzd0c+NYpmveA4BhsN/c0zQfr9Mp3W+uM0ItyXxLD98SShKxxLSa8KbJimK5zsu3B94DgMuzub+haL6ju0Ws4jWheEH0Oo/o5n6j9roe7N3s21v+n1gitYEoyrapDQBcEn4jz1+JlvEPenmYqdi8pdnDD0rEG+j1idZNXtBc3s3NPY35EXDmMbPqwqOrDjrBcfTEmcw9xi8ztSnH7cNXWi3viJJLRNnlYrx9Mu83dM/jk+N4mscq5qNQ7qM/F0tEb4uEDj/QVQddSOjnlv/v7oMjjmb08PJCDzP1aU2siu76jXjN0yvNxee5RNyveUzuOE7iEePlMjaFRN+vuW7inPt1Wtb9On0gmEMF/lyU4xxBiH/O+ccffxzsJAfusRz4Ccj/lUdtXx63J/HywMUdlrHaoPaZ8IZsn9XEUhYA1fzzzz/qvxTJ6sAd6cNk5RNJfrGablse4oT/W+0o41Vtk+txet4mMZ6WMTmsYlGuOE+57ukxk8NksuT9VFm6PnKPlKw+at2kZTLbiA/LfCVVgx8vnJEV5AurLwyAjG7JbMOIVUEpedJ9CvHLFJK1NsYt52HMpLQnqXl+9eCouOZOY+b9Zk3re/GngSkvc+6k5Lj9SAu+0t37sUux/3vH17mgj+hjgy7cfiAeEdP2Z5Kue1AZqzb2fxNHK73Odfc4XaJH0b9X1MW4KuPuQzHgbz+I2u/ob6PHXmRGnzibX7lsyf47vW0ntKhInpbJnA7yo6efRJ++0LdvP+jHj5j43Dlu6eGrqM2cIt0Qb3cU409boDMR/cpJRLu/C2PPIzyO5XibyvGtT6y64Tcj8UuvuGTj4dPG+Exmczorv//+RtuaF2G7ZJZPCb7Qr+kkg/3PVdyg8x0tknwjvJCekwCgPSqJto/0bJkM2q+f+M2r3mJesWpBvf13pdfnnvbZppoYd5Qh3978ifHCLjP7QqvJlt6+7+k7X8Rk8bHyIdEumbNK6i4AP/3uRQPmEU/PLT1GxW7KdLqmK/0HOqBPZi8Uy5eimh3mGBTLZn1Pn0VXePmVHkTke8Wqhru+HJxpss7oCw9St4+faa0DVsxc30QUZU+QuhgvliHryN19Ub/J6gt/WsctfeR+/Pbtc20XW9J6AowH+mLwz0Xw50se8JsDdDX4535KHKtlpY7BjDZoQGkCLIeYhZ6IGM1icXJYxkZ01caqgLctxUSU2Cc/G507lpf8zLVvjBfL4Pqt8mWIzytmqdUkm0/O1CRzewqzfjlc2wFwUZXMl+QsMW6bMXfQaTa7CjljJ8c0uT41d1OexQDG+cd+AMbDqWNcDhueH2lLS/pU3yc/4T/n5DENd4Fo9xQdxxPRE5H4R/EvHjUDYOicMsb3PLaOIpq/TmgZv3iMryH0AyMAQj8/TvdmBgCclcyb/dtvv6lNAIAxgm42GDzoZvuBbjYAgYBkBiAQkMwABAKSGYBAQDIDEAgdklmJy65Qado30kGFdgQdGdabebOWX2cD4KKMNA4Hlcyb90d6fXw/n7s4AFcy6IglBs4ehz0xqGSevQhbg98/Knejuv8X8BaDMOgnDs+PM5n1OE7+lo/+RsiUn2BVGVLpJ3aMsXMu4MwfrD6Sdcj7hHWZ+SI8vMU2XK7kssP4eLI6/7GrzVIVVe4a9DaDurb2On9dezG1LugxUBlrR4rXekNTcX/UZ7UxIPdK6avtT4pLThAvhd1gclgKs4Lw/SaxYR1RFpLsW9N6/fil7JKfWK4XjQp5y4L5pW5ZBz5+wmWmPmN1jqwMZYwQdZTr5TLcCIexqo8sW22VxxsOY729xn+c1ZfPn5aZmih0eXpbsR31cbyPs60bnt/ZXrqctC5yveSCHh5lOYFHrDG6zYR5RLerNINkbSba0RUD/bf9qalOZvMOFxpMN2hVVc3GS9ePh6hkVJ+bjSjrkFuXyDooL3FXN7e+kWpVkAW7Wk8xryPF3NdWX/OaBNbjzHYsXFv78xfbw2z/FFsdh4SfacQea2ablXDFQNYefbX96Wk2Zp59qlWUVvuJm7uAKzmXm7uT/7glSkQn6ev8Pi7oEVEZa442a8wl7n1LepwAS8fEdX7ipi7gauDmbgO/mY9qWL2M6ve//GLt2miWzJt3fvpN6Ff5S6+3JB9OGl8/cUMXcDU13uK+6Oo/boNsa0Vf53eUI5Ij1cuOBJ9Yc15rQy5x71tSncz8Br0Xs3/C9ytmD+XPaBpv0t07bUQkZBetu9D89LT6iRu6gCvpw82ddyW76Oo/9oB7F3KmtdDW+idL+zq/jwt6BHjF2vFa73WbyWvlGClNMVfFwBnufV/UTYAVnL9yRlbtIEhWh6WcsVODfB7w5/e1+4kZhwvYnIjxndBp7+bm+hmuZHNiI0+d/9hWX9vkknXypK6tmTbnL7ZXSrGctP2MUw0K6wSYZ6zVX6sjBkr3rJ+2PyXNZrP7ooELuApbowtc28E4Gao3e2j0OAHmh+imNHEBV1HtLf5Jz3KW076M8h9KAFDFWd/Munstuik9FS3+6F/4eRJLFwiMG7yZ/YDQDwweCP38OHs3GwBwGuDNBiAQ0M0GgwfdbD/QzQYgEJDMAAQCkhmAQEAyAxAISGYAAqFDMjucXuAMmG2PewGG9mberKUoDYCLMtI4HFQyj9VX7AUc3cME3uzTAG82GALwZguEyWE6Dm+2psqrrOnqTK71M+vjchdWd04fymUUS6g6/+CpjLUjVfe39r7IvVK6xsBZqPwKZNDebH1u8XVM5UMueZWP+3RzJovj1LXLz+VGVdc2jm5X2x9bNi0jPZ9ct/ixXecfGvBm+3HF3uxy4pax75Pe3ONNqq1ntl68sWY5KT7nNNveXDfbOcVsX/v5hwe82X40GzOH5M328SpfwpncxzlVGaH4sV3Am12kxwmwdEwMb/Zw4DfzUUGsl1H5sV34xdq10SyZQ/Jm+3iVL+FM9jqn0fbmuvPaXDrZkQFvtpXqZA7am+3jVe7bmdyzo1u3vSZbL5Yhkdc2Mj+2C69Y87m/GnizxSzAyL3Z4px5H3JalnlcP85kboseHd28Q7HtzXW5qfraRj0B5hlr9ffXcV+M+9lPDJwWeLPB4IGd048eJ8D8EN0UeLMBOAFnfTPr7rXopvRUNLzZ4YM3sx8Q+oHBA6GfH2fvZgMATgO82QAEArrZYPCgm+0HutkABAKSGYBAQDIDEAhIZgACAckMQCB0SubMe6TWr41rv34wLPBmBsBks5bCvrExjGSGUxpcCnizh4rS+aLrCzpw3d7sGldwlXPY5S4W1LqjhTkiO69Yis5spxdaHlftXO7z+sEJ8LiHAnizmdScMKnwZqt9SNgbtCtY7ZOzV6Q2i0mlA9rpLq45TpolRP30FkNKkK6bXuj0uDrncl/XD7oDb7YfHbzZOuCPFy2R+2hVip9zOD0mf9Eex9lsJYVzW87jpHy+fq4f9AG82X40GzN7eLMLtHUO+xzXxZnNVPu9HTS9fnBS4M0uMuIJsLbObDiXxw/uoY1myVzwZnvQ1jnsddymnTPb1+9to+n1g9MAb7aV6mT28WZX0sQ5nHcX+xzX0pnt5VxWdL5+cBK87iG82Rl6AqjgCza82b6D/loHNK+Z7mK5tfI4NTHBdXQ5s50TYFzH/DXZnMt9Xj/oBrzZflzGm90DtgYXuLY3ZejXf03AzunHaCfAqp3ZH2omwQAIj/HOZs9eKOHX5+4pOo6ZoyeiRUzJy9j+IR4A3YHQDwweCP38GPHfmQEAeeDNBiAQ0M0GgwfdbD/QzQYgEJDMAAQCkhmAQEAyAxAISGYAAgHJDEAgXFcyb8bpQwZnZqRxEm4yB+RDBicE3uxxMlYfMjgvwXmznc5ppuwQLisaqnzFgk7l1ziTg/MhgzI1MaCpisOr8WanX/I3ndNqu7B3JOkW7RDOf48/3afKV9ylfOUjrnQmC7ex2JaWo4pS58wdp+o5dB/ytQNvth/VyVyqSNoYpoCjePF2z7BJ+/JtWM6pb5JaFfjU06yXvEnmuWXZUAOdC3iz/Wg2ZlYO4de57kakS/S4TT8XdPEV+5SvaOW9zjMiHzKwA292kVYTYPzmPOpt9aJ+36kPqsuHMxkgBmw0S2anizinKe3iK/Ypv4v3Oo/jXEP0IQMDeLOtNHwzFx3CEukijih61tN2TXzFJh7lZ42r1rl8p/dadINkHdRqgRH5kEERrxhoEoeBe7PNAX6eehdx/T6dyo9znzudybwtEB/ytQNvth8wjYDBA9OIH60mwAAAwwPJDEAgIJkBCAQkMwCBAG82AIGA2WwweDCb7Qe62QAEApIZgEBAMgMQCEhmAAIByQxAICCZAQiE9snc1i3c9jgAzsVIY7R1Mpfcwhb/sG0b3NVgUMCbTa3dwv04iVNtjKlDBaAPRutXd8kJDkJLKlWhapksD3HuS9b5L3Brzehx39VhZdkm9jW/+J19qTtZ5c4n9KhqB4FZF15qrYsgGKxyAhkTSiqgY8YSE1VyAlvc2mJU4C0nqIrjE+NIZuX8zS48OVZWrpsXbPMP27aZxx0b1O0bVgaJ3E2wNTYIF3iz/XAks7roisdKKaF0o6hViWWbeZz5kJDI45RuhZ90ouEKVcl/DoIH3mw/HGPmGb1w7eh1TuInNqb366Ng79zcfqQFZ/Pu/fhzINKMOFnQRxg0rxp4s4u4J8BmL/SD39xJ8pUW9EZv8+hCE0639PA1fbBEWor/dkfxt/483WBswJttw5nMQikquL2d0cMLN5Z4U2/f6PvZs3lD9/MdLRIlw5dC/BeaIZOvF3izrTiSeUPPUUTT9V69ife08aq8zT9c5ST2IaJfJ1t6jNK3sl6m3Eu4VM8fXBh4s624x8zJiu7eItW1jWjOXdtVUvG3t9kXWvHL+5G749Fn1R23bWtMQj/5KTxZxhTHahGFbh9p3rpMMG7UnM6jmNPh+Pz8TPTlG3HOFbh9+EHJ6o52Iv745RRFc9pxHCUvuSj2iFFdjhhqynLmb3S3iunbw7C6h4M3jYjfyo3eFpQYv2Xl2g7CA6YRP9wTYANBzhryW/g536fm7tKzGDTdfUAiA6AYfDKLWfWEu1S7p+g4Zo6eiBZGdwmAKwdCPzB40M32Y/hvZgCAF/BmAxAI6GaDwYNuth/oZgMQCEhmAAIByQxAICCZAQgEJDMAgYBkBiAQ2icz/NcgVODNtnizARg68GaL7z+M1C0MQA1jjW13MgsrgxDN628qTfnplf8W4nqaOcE29/z5XHgeXmku9xXblajesDrI43JPQnks77PnJ+TUcS4ASsj4FLGkYuZmyl3jctDs17m44mUqYk19Zo/bYmxriuWIcx3LEciyxDF77qJnecP7nfH17khmTsTPc3q9iymR3q2E4ju+YIeJYfaSyK8pEi0pTvi/m8r2dk/0/P6Jvoljk5hWonFhEQFOdHwuVHweOP7uuGscFZJHCiwed3QXi7hKY+vudU6fVdL7xq0uZ6HLiRe0ezyWk7F9JCE9+fQt3W812dLr/IxDz9N5s48i/TxW37B5HlmW4coGVwu82X443swX9mbPPl29NhXUA292EfeYeTDebABM0vkYeLOLOJP5ot7szTs/ZSf0a6TWAcgDb7YVRzL34c2+JdkTeX3KfMOb9b30DZfgfe7FLKNwEotZyifuMOHnZ4ALeLPt2CfAmMJPU4rB/bIwkC9NgIkJr6WYFMhPBMTFn7cUBRgTDnoCrPCTmcbPx4LrxjoBxnGUj5eV+tXF8kSV+yddU8pxW45ts5yKn3RV65IzT4Bd3DQi/j43p5gOMG0CBzCN+OGeAAMAjAokMwCBcPFklv8OFl1sADqDNzMAgQBvNgCBAG82GDyYzfYD3WwAAgHJDEAgIJkBCAQkMwCBgGQGIBA6JLPd8QVOh+lPAyDPsN7McHGDIXBt3uxTMFZfMRgx8Gafhn58xar7D8URaElw3uxWPutKl7FjjL1fy/LFZtNX7OUiNv3eNxG9LRI6/KjX/Wbn0+XnCi57kssXXuVk1tT5lt112PP1H9tSlJ2oT/LU1bPqGkcNvNllXKaR1JwwOSyFmSFJeIlTdW5mUzBVunr9aFtIpGkhp8w1LCOCvLLUNDzIOkg7xOoQyzqoc2RlKLtEzh5hs0S4SPedHCbCVBEbZYhz8PnkerySlonsOph0H26fOK2XaB9Tyar3Wel9VDmlfSx1SK89d2xmuji2n3c9LeWPibJpxCPWmPp7JO6Jikn5udoq2yxXtiqn6j7Wx+rpqU7mfMsICg2mG7SqqmbjpevHQ1Qyqs/NRkwfKEZiyjooFUtSDt7C5zWkN8lsbLOOKcW6lRO3jH0f85xVdag+1qeervLHBbzZfjQbM3v4rCtdxjwK+cQFvL6rvoe0LE5o0dbcd/uRFpzNOy5Pd3mkNbGLDFB5kl/nuquULlFeROjjZO7iW25QfmU9Awfe7CI9ToD5uYxnMpufSAxv9t/faNvJwnlLD19FeXOKdDC/3VHc9OdxLPAbT/7sSWHxGIefm7HUs1/8Yu3aaJbMBZ+1UulqfFzGgtkX+Rs8b9/39J0PmCw+dgi8Dd3Pd7RI8oH8Qnz69jh9yzkVq4+TuYtvuUP5hXqGCrzZVqqT2cdnvXunjYie7KJ1F5qfniWXseCWPnLfePv2uVsXWxLRr/xgeIyKXc3pdN3hVySLnmSJ9C1HFD3rqUkfJ3MX33I6HCkeazrHfeoZKF6x5nOPNIF7s/UEWKXPOnNrq0E+D/jz+7pcxuI4uZ8xYWBO3tRPKqjJCa5nHKtF19c8zkLV5FC9b7nNPmXfsrsO3Hba56zLtuxbV4eqaxwL8Gb70Ww2uy9ss9AtsDW6wLUdjBO/2WzQ4wSYH6Kbsnl+pC0t6VPHPoqcUdw+0rPuZgq4K/UsBlR3P+lZznLaF9s/MABg1Jz1zay716Kb0lPR4o/+E9nV10u5CwTGDd7MfkDoBwYPhH5+nL2bDQA4DfBmAxAI6GaDwYNuth/oZgMQCEhmAAIByQxAICCZAQgEJDMAgdAhmR1Or6vDbAe0C7gMw3ozj9RXDAJjpHE4qGSGNxucHXizTwO82WAIwJstECaHqctl7BhL7i/nzRa0c183f0zUeZdBQypj7Qi82UxqTpiE782WX8dUPmSn+5rPx5/L9ZKb2tUOx6vU56nyLgM38Gb7ccXe7HLiljHrm1Ksp9kO5rr9PGmAnO9Gjxl4s/1oNmYOyZt9Ljf1iLzLYwPe7CI9ToClY+JQvNl5+CV7VPnqJXg39ZDxi7Vro1kyh+TN9vEqO/fJa1mNdjDXR+RdHg3wZlupTuagvdnN3dcSuY/FTa3bQZOtj8i7PBa8Yg3e7Aw9AVbwBQfmzRbUe5U99jHbwVyXm/JlQDrYBHiz/YA3Gwwe2Dn96HECzA/RTYE3G4ATcNY3s+5ei25KT0XDmx0+eDP7AaEfGDwQ+vlx9m42AOAUEP0fbOryJOZniUMAAAAASUVORK5CYII=;" vertex="1" parent="1">
          <mxGeometry x="530" y="-20" width="198" height="176" as="geometry" />
        </mxCell>
        <mxCell id="e3uVdYMobHJducTgOgBb-3" value="" style="shape=image;verticalLabelPosition=bottom;labelBackgroundColor=default;verticalAlign=top;aspect=fixed;imageAspect=0;image=data:image/png,iVBORw0KGgoAAAANSUhEUgAABW8AAABWCAYAAACw52RHAAAAAXNSR0IArs4c6QAAAARnQU1BAACxjwv8YQUAAAAJcEhZcwAAEnQAABJ0Ad5mH3gAADzzSURBVHhe7Z07duowt8c33zRucRpIwWIEMAKSJhUtHS6TJl1KujRQQkfL16QJjABGwKIIFOcUt78z4GrLMsgPyfIDMPD/rcU52Jal/dIDWVZq//d//3cgAAAAAAAAAAAAAFCY//3f/6X/+Z//UUfgXoGf8wG7Zaf23//+F5O3AAAAAAAAAAAAAAAAUDFqB4H6DgAAAAAAAAAAAAAK8O/fP/rz5486AvcK/JwP2C07/1H/AwAAAAAAAAAAAAAAAKgQmLwFAAAAAAAAAAAAAACACoLJWwAAAAAAAAAAAAAAAKgg/yHa07hTo1ot8umMxRUAAAAAAAAAAAAAcFssyat54t9zcokyAKgal4/7/xDV6W11IP67ZbtRm9qjnfx+WL2JKwAAAAAAAAAAAACgCuyXy8sutNuPqcMTVVjdl0rIN1e0W94YuXhsKapitypTyrYJ+6VHHQ/PWgAAAAAAAAAAAADOw55+hkP6ueTEVv2NVocJdbG6L4WIb65mt7wxcoXYklTFbtUmdfJ2P+5Qp6M+2gTt0uNzHnnifP/7lVaTrji7p7E8rz7ji3sdAAAAAAAAAAAAoALwNpUdOk2NaMe8CK5WO86fnKZboq9kB8c839Kn9/Wa3vsivZ+JIe2J37EoR26VKcrVLshFeKrsjmfbNjOc557zU3J741919tFJ843/fRzyhTjHtmdbanNt7n5Jmn9LkoN9pqU7lqVkEnnUeG4v4b7zcw27mdLqZQmbcP5ahbl23KdM3u7pZ9uj2WpFq9WMepvhsZF5pk9xbkITef7bN+zyi943Wvrtj9VgAAAAAAAAAAAAAPdJnV56RO9fahJo/0Nz6tFLfUneM9Hn4UArnj+ZfRI9hydd49TpbTKjUbtNo9mKJm8uSxM3RC8TUcaBDosWvQ/VRNV+TP1hU83drGjWnFPfZcKO73s/yT152tJUXXpsXHxz8sVuJGJi+EsfbP/DglpTNdeWxS+J829Jchjm9SRCptcZHXhuL3NslcEV7GZNK8p6+pDnD5z/u5rrrEDcp0zeCkN+vNBuOSbP+6L5Wp020f2gEb1Tv+PJJzovE+ybCwAAAAAAAAAAgMek/vZJg6k/CbT/mRP1Xqi+/Kbp4JX4/WVJvUuvgyl922dvc9Cip2BSpvtKg/WWdvx9t6X1mudu/NWH/fc1rbfyih2+T5eb81RfQRqaLwRtjgP5rUHNtvySzS/O82+2eT0hU+X3JyjZbta0BntUIO7tk7f7MXUaX8ImbzSZfFAvMAwHyeaZalLZPm17H0oJERSrA61mH/T026fGcakzAAAAAAAAAAAAwKMRTMzuyZ+7rchk2WAhVxHKD//RerkVJrg6zn5xnH8zzevdG1ni+QZj3z55G8wuy7ZlR9tghn75RfPejg5K2ePSZhEUHv9JuHqdum+89HlDv4aVygAAAAAAAAAAAAD3Tvd1QJvvL9rKLRPkieNqXMl+Sd/TAb0mzCHtl7/8MrcT8bTanAyv9m03qcHfG01qa+Xvl2Mau/x5/8h9tHeXDTiQxS+u82+meb17Iovd8sR+BeLePnnLDUqwwnb8e1qS3P2g3rZPnsebGvt/tEzuE1x/oeawL5ce84rceeuTLrZVBgAAAAAAAAAAAEDV6L5SazqlzfGV7y5NFkRDOXciPv0h0WKi3mju0sdoQ8/qjyN9iTMteZ5Re+g2gj/uZEvLtGj7xWXUqPa8odFMvVpff6OZVn5/uHV7fZ7vG4n7gj/c9BMt75GJ+iYHWfxinH+LyGGa14tRgvy5uLTdcsR+BeK+dhCo784svRp9vx7ouLJ46VHt+xXL7AEAAAAAAAAAAPDQ/Pv3j/78+aOOGP5L9t/0eggmaME9EPczcAF2y06uyVu5PLs/15YJt+hzJhohhwc1AAAAAAAAAAAAAPdKaHJq6VHneUo02tGq0q8m72ns8dYOYZofE7xRbeAyk5D35xfYLTv5Jm8BAAAAAAAAAAAAQAysLHwM4Od8wG7Zqf39+xeTtwAAAAAAAAAAAAAAAFAxsPIWAAAAAAAAAAAAoCSwsvAxgJ/zAbtl5z/qfwAAAAAAAAAAAAAAAAAVApO3AAAAAAAAAAAAAAAAUEEweQsAAAAAAAAAAAAAAAAVRE3eLsmreeJfcEn24w51xnt1VGH2Y+p0xnQDkl6Em/GbgevKf6m2Bm2aTiafP1x9v3ys3HobYsJZr6rF2I3E/M3EDcYMD8dlYxP9u8512gX0mwE30y6DirCnJcdMrUY1/nQ6NF7q8cN1S5xzDqk9jTs18rTKyDFZi9TPpVcTcbqUaWW5+sfaX/v5m+9J0yfAz+dUV1hPP31H5t8hT1dajCM8Ts/XOl4Ge4BLw7GVFBt+HEauiQ/aS8Ve1IFj3TrFf5rdqrXylgf83NgU8Ol+uVSNSbW4ulwl2NYI/Ia4OxfnilvEbPmcyVc3H8PXxsUv56pnl+RWdaiq3OeUq4S80f7eAeeKMcQX4rAoBWMI7RMwsfQa9Lz9pNnhQPw34w+zT9o+N0KTr9mo01OLaPN78uxuS9RuT+n7mOeefjdt6r106W3ll7sbtak92vkyrN5ELibq1nvi+vSEPv3YZOt+3Kf3tTo40qbRbEUrmf+MmvPADkvyGnNqzg7+tVmT5g1RH+U9oFr4sTXaKf9rsVF/W53Oyc+ORAhR68kcbY/Dnsb9Z6JPVZ+0+E+zW7Umb+tvtDpMqJvbp3v6GQ7pp3I9UwXkKmxbCw/vN8Td2ThX3KKtKZ+cNt0vPeoYR613EMPXxsUv56pnl+RWdaiq3OeUq3DeaH/vgnPF2MPHF+KwMIViCO0TMLGk72mbRh/d02RpvUuTxYCmp5nWzHRfB7Te7tQRT6a1qNdrnyZ09z80X7eo/DmzJH3e6GNEtNUDTYzz+/MeLXgGyog2Cb3/pU27Ry9BpvUX6rU3pM1Pg0rhGFschzQiES5g+UXvrQVNjp2M/5BkkmSbiN1Ck7e/Y/EjWi1dHx/bEP/VmLHXCS2D7shl7uJz/NG9l2mO54+PXEznk/DL8nNU5UqZ/OXDvNzfJylPPsdPddb03g+WHkdl1/NnTOUFNhDnOH8uW5tckJMNQdle8NqAfr8ub5JcJlxl8NMl62Gyd/ieZB3E+UTfpqHn7X9/HL9dSn49Hcsp0mkixXXLIL8o91SMJ/I+ycqvQujXpEyqnFB4WK7tWWZ1zRv/BmcdyzXZKhpbpnJMuObLdlR25Y+046V8LkqK+ZXR79fldfU5E80jHE868TaBfaenD45NOsZ9tZQ29aTO/e9XWiX3Vg525lOiDOV3/pzMp8tgtzOT3P8JnPKP62hqY5NxldVPdypFP2Z7qfL4c3RQ+B5bTB3TJPYDfhqTviZc7FDOmMJFT1NZaei6X8M/Jq4vF8YMgbxJciVjspnRxpnOm/xpOi/gfFgPde0kktJV2tVvr0+3ifxCxzp8Df37deLLRX4+dbInf2I+d5Cfeex+M4lLxY+eju0o0mlCxeVNjh9rDOrxAsph+U1TfVIyoNGk9vRbxYAJi8/1++VET5NeXnpEwYTubkvrwSvZ58zsMZWIQR9eOTh5C06KfIcb6s3eqKHOJMOTzmp1IU/WCi2O879SpwS7gQqwo+16Q0PRXgVtlmd4ZWH59U6tT9sq78dhL4K93SS/nRVtu7SbocLF7HaQLA4Dah9GO//osBgcqD06+Ifq2iK4uDuMBsE18b2t7gvdo6UxnU+EyxqIf4PvernaNWOemjwSSx6ShPJU0t2oHbcBH+xGh/bxvJ+u7RvAUlZULp/TvQGOMoTyZrRjo220NKyDdv9iQEoOgy0jOsfR5VFyPpTfLiB/JF3Ilkbd3OTXjxeD9mHAHylcVE5Nh53jtUisSbnVcfZy+bvBrpZyknHM925jNixDSM9Quck6S5l9Z2npdTksMnJZwb0yT91OUTLaORaXp3uNdo6kC/vcIf8kWYy+80nzh11WTR792BirEbm0+09tv55vss/9NAZ9FTG9TOU5xJhRn0J6GsqK+CuO0l0luLx/fKoXN0XsGeSn5DS1FYmyaWVJLHlIEspTSY02i+hwsr2trKhcSVhspskcqium80nyFak3jKWNk7aKtfvBYTg29WP077qt1TWj/WxlReXyido+ns6WpwD9prrHUC8i8ZfeLl8gfiLpQnoY7RiRyzkGQRH+/v2rvglC8aYRirGIb49YfK77Vpw/+dHPk317HHYr4nFry98ndo9JHw3Z/quyw/dzeSTa8tOnrQspbRJcS7JHtQj5+aHYiSZ+cdgF/pHtfYK/Iu1NwKPajetCOK65DlOsnibZTVt5qy157r7SYL2lYAG+vKYv6/14od1yTJ73RfNg/5LuB43onfq8qfSS6GWiZohN553Qy9XIlKchj0TCy77bvReVb4OawUp/fnq15rL9J5X997X2qkKWskw4yGDDxTaRJ3DdyYFW8gmZwbeZeUS/RSlZfomWTq+jVt3SqfPT2fkP8WqA702PPl5bp9dWgjjhp6v6U9t6l14Haj8l27Xo016WW311KjeGwa6Wctww5PsobU2szQ9IbhPqb580UE/59z9zoqP8OmXImISWry32JA52lhhs4ZJ/ko656qSrrAYKtf06tn7AoK+JIuWZ9LlaH1cV/0S5plwYM2THYDOTjW3nk+TLWm8ytHFu7b4P+nf1VXDZ+DKh5Yl+80Sh9i8LBp0TKWh/VztePAZBcQw+FxHy1FrLhbbL743aG5PrHW81sCdurpv2Za8KU/45WXo0pM/kV8El4b1Sj2/h8Z7T/S19Btd2n7TtO6wEBlegLpr4LtWDuJHtvR+LOlh1G6c9mtGpK6nTi77ViSLJbtn3vOUK1fgSfcgbTSYfJMpRiAHpSlS82Qc9/fapUQteATGdL8I58szAYEGrFW+wLT7cqJhbpStQwDZG35YF/HY2iugmX08RHfRS/KhqPYl295Va/KPLvbfPx7XKzcSDx6yxTQh+jPmDwl6Wd5n4x9Lmmfy/MNunbe/j9CPvnri470qK1bP3AxEuOaa4tG4hrtyWGKmyPa9ss3PU4TJtlijfGerNkQztPvr3dK7dv1eRW+03q4arHRGDl0VOiGrbAQREHhDkgfe9nX6P5X63ryqjRpOfof2IlvhMWw4Y9JFbA42XNB5OaT0V4335WniNGvyA4L2Ruh2H/3BQ/DYIZK536UM+D8TsbeVYelSLbKcTQ4x7hhvsdatTf2qlP5w02E2bvNU2guanpu0mJQ6vggZGVije50KelQXIPS7qdeq+zWgUbCxtOl+EkvLc86BSfXcmsi/NfjmmMctyRUJ6uNgmqoNsZEUik2+Zok/fGPhNkkt+iWYvvY4W1o2f2E5pOJxTS/b4DWrSnPr6jzPuoLUyRCH0PR34AwTbtYhsctWN+upUrivWcgpw1zFriCdGX8FhaBN4oLj5/so+KFx+0by3o4P6wXDaFysHttjLhMEWefO/UHtTWtuvY+sHsmIrLy3GTPpUuY+LcBb/lEBpcmHMkB2TzUw2dj0fyJe13mRs49zbffTvVs4VXy6g3yyn/SuJXPEjMdjf1Y7XjMGHxV+V+P61PE1eivrhPU9p4FQBDT5npD/f6V20tME5+QbE+ztN+QGaOmfHkn8iSfqM6eud2/mufDASrKrlz27UpvaIx//2FZhyYmv+Radw5AeG6+Nf2wcVQrb3w9OqaOH/4bQdekbLq0dFQDjG4IMg7fbs9z+Spao3JyuZ7BbaNmH7JTok3mz4eUOjmaFicWHBqqnx7+kVjvoLNYd9+eoFr6aatz79pcCm80Uw5slLjkU71TBt+tulj9GGnnnTd3HvlzjT8i+4U3+j2YJoKMvuUH+4dXi1JE2urFj0cLF3VIdtj2acyOLbXnsqyiv4RPpu/XYB+SWGOmrUzT3u5F8qXQdPa/371qEfZ/zXUE9ldPpDosVEnE25xrKNxDWlu/cT1j29XEdSysnNXbc1pnjS6rupTWDEtdZ0SpusHXL3g3rbPnme539E3uaHtul2NsdlFkz9X878c/nOhTO1/To2n2fFVJ5LjJn0KaLnufu4S/gnF2eS69z2NMp2w+2v0WamuuJ4PpDPZDOjLTO2cUJ+13Yf/buFc8WXJF1+9JsKYwxomOqgkQvEj6Tgb4Kz2RvY6E52tGgOqS/8X+OPqB/NxS6ytcBa+Eld589xpaqpzglELPObHKdtNgT1JxlbbhPDjCV/A3F95kIf/XXwHHQntBOxOjzagN/Si9oIVAPR3gtnbfsn//cWq5P/5WTugD4LBcQ9wnbjBrihYpz7Sa3eWOxWO/CjEHAV+Oltn2Y59k4C1+Q6fuO/AvpNr4c8A+wwiLvHI+7zMuIpXx78l8a/Xw+nQRi/cvP9+lCv691rHUTbcl5gX3B9ktt9xOb1eBTbV1XP68hV3m8CcF7+/ftHf/78UUdFOLfPEVNFKM/PjwXslp3se96Wwp7Gwaor7WN9kHyXtOQTsdsBfvO5Nb9FuXX5s4CY9SnZ50uPOrVn2oyy71fb/eAlVP5KD/nhh40fjQfz073WwVvXq+rtxa3Z95Hb3zvU3druXyM20b/73Gt/EqWqej6K/QEAAFwbrLwFAAAAAAAAAAAAKAmsLHwM4Od8wG7Zqf39+xeTtwAAAAAAAAAAAAAAAFAxsPIWAAAAAAAAAAAAoCSwsvAxgJ/zAbtl50p73gIAAAAAAAAAAAAAAACwgclbAAAAAAAAAAAAAAAAqCCYvAUAAAAAAAAAAAAAAIAKUtLk7ZK8mif+LY/9uEOd8V4dWdiPqdMZk0NKkBfYOARikym/zrvibP+CpJdzbhuk538pW2THLvuj16Hz+O16dfJWKd0PCfEaL+Py7UYmPdHfJ6PbpYCNLh8PZVGWnG75lN9GnsHOZ6wrifpzebUaeaXaBQBQefai/erUqCbqf63WKakNyNIm7mnJbZIsX3w6HRovdRls1/c0FrLH+z2RBk3ZzcN9lR+X4U/g76UXuYbx5QnRp3O97nDd7nih+mCzWyVW3u6Xy6s58ixlywGWaBCrFJ3nlKmEvK8ZAzYQmyVTxbqRgarG6ZEz2Tek9w358C7rkAtVkrEispyt7t5QfTgrN2KHyrfhwMij+2759U6txYEmb3W0OwDcG3qdDtXvPY37z0SfO+K/MX84zKg5b5B3wSd+S69Bz9tPmsnyxWfWo+1z/zjZFL/+Ka4HMtbp7XNA6/nPsf3ej4c0HXwSN2Xgtqm/rVRcBp8djdpErSd27p5+N20a7bTrqzcREUDUGvIac2rODrRaCbvMmjRviDovr9ntljh5u1961CmpVUjPa08/wyH9XGUAcqay62+0OkyoW6XoPKdMhfO+ZgzYQGyWThXrhjNVjVONs9g3ovfN+PBO65ALVZKxErKcse7eTH04MzntUOZ4M50baMOBgfvxXSkxfxP1DQDgjF6n9e/LL3pvLWhyrOx1elsdxLE6PDtL+p62afTRPU26Cfk+RkRb2SAnXe/SZDGg6bdqa7ofNKJ3+pKHS/p6J5ke3CH7H5oLb5/c2yI5jwvC7H9p0+7Ry7Fav1CvvaHf4xjHbLfj5O3S61Cn45HX6VD/+5VWqlWQr+6Ic/Kjdfj7sRgA1HipLy/f/1VnfYx58aDhmBcv/93T2OvT+3pN7/301wDi98cxpXEr23+FYCzkPy5P5vuUnvw5mUClZTuI87ykuTMOLoZfRXCR20fPk5dJ82sH4hzfx/kfCw/nHz5mvVRZ/Dna1E0mk7/t6Hn735PtkiSbix/CspvLs9nMpLN+vy4vYjOKrc4n6iC+n8wWHLuVn0UuJjluozbT7WKPlTjmePh1sHP4OJscfv5BOnXSSKTcxBgx+YZ1VDbkj0yQpHe4jHRf+flbzStw8bl7vJjlvkwdSrKlHVsMn0wXKZvlU/KH62TkPqOeyRjtHCpvrJVhkzP+/WRXPQ71a9dqy015+Lj5yI3kdsNehlkucZ7PiWvRtjmZaH66H8LE5fHr8yl9cKzbwS6vaYyYhCkWs9fdom2CGWs86nlbOGc/kiemTBj7I4vdkuPTFEfqMESS78RZQ2wYY0Zgs7PRFq4xYUkXj/lGBv39+5+nRNPnQH9TLMTld/9Nxqi8HOMWAJCFaF3V63y8TvP3/e+G2k3y66So23zPcRyj12G+phodY9uY2BYzFrmW3zTVJ5kUvOJSvgVguE6NJrWn30off/XtdChk4fRYdXu3yDdEPoNVojvarjc0FGOGYNzg4XURH56spfnpgbSc9A7qUYrdDsxicKDBQn49HHaHUXtw8I/E98FI/Ku+t9uHER/sRoc2BWkEfH9wbMqL72kHefFh+9D2Mzvlq3G6rjDdr5+3pdHkXQzIUPbiMCBxvAhO8LGm504/tqXVvhvLTkLlqS6z/HTUR7+ml8Vox2z/4z26/1xk0tNrtonYNY4uj5IzyS5G2TL6IXSs0qqkRpuZYiNIk1hWVC6f070KU976eVsaTbfKxmYkrfSlnk+CbiE7HdM4lG/ILyB6LM4YYinJDiebcj7J9csnsRxnn+jfmeg1FznC6cL1xycuY7QcTQYtRmSZQTsd2DtT/VT5mnx4TMP3xuMqJrfJ5/p5W5pEGbL4S1BmHTLa0ifuN5O9IzJaypZlHo8N8jIhPRNwtHP42CJn7Lvmk5Cdwte43MRrJvmCNIk+i8aCT9wPKXmk+SgiG1NeGYZ7on4JxYGPUYZjdpofQjokyyN9E20/dJmC/JPk5bISx5sJRHSLty8K57qr25SxpRXo+ep2MX2Xh6Z49MkWDxF5YtdOukifHOXQryX78JjGpHuMcHnxuqvdG7Wbfk2Lz+Q4Cg6jdor4zpQ+Ul44Zkz6pl3T5DfFhC2dIeaz60+HYzah8vi7QX5TfTOWF80LAFCEv3//qm+Mql/HqmpqR0/fZTuh3xNrCxiRPq1uR9pGvS32yzPIFZIxAdP1aHlK7rAu90PYzw9KJPbY57uF+CUYnJD9Ytj/D203WUe4TkTrhd1uKXve1unt44V2yzF53hfN1+r0bkvrwSsd10p0X2mgvhrhe9bv1FdPgvrva1pvd+qiAy73m9JE5O1ODrQyPvJp0VPwaoJ8OqTpWe/S62BKwVsAobQmMpXNhJdJt3sv6ulFg5rCw6moVxP6HU+uiniZJOwtYpTJ4O/MGOziItsRB9secbCZNX6ylJWANW+FKU2m+NDkvHRsRtKG6rxBt/pLj0jtcbT/mRMd/aIwlW/Iz4wtbqN2cIiVTOSNHVc5tHRs8/WWbJYIYYmR+tsnDdQT8aNvMtVPRUoMfXsNmvd2lphWuPjclCZFhjCav85ZhzLbMkfbGynb2A+n6hnB0c5UfxIWyoMtph3qhUk+iYPPUjHlUVb/yOQpw3CPaxzE0GxtbFuS5UlsP/xLGiX4IqLbsX6VUXePaGmz1hWmlHjMaytxn3Zbcj+SI6aMaOXpMWOzmyU+3eLIgMnuppiR2PQ1XHONiRyxU0j/GBl9WUrcAgCyY2hHLbRHM22lap1eem3anN6vpqU3JPqc+O2PY9sYHytklysboi/6FCUmrdIFd0F41S1TF11hl+rBCdkvrunY1TwyvK91f0ufwb62u0/a9oMV73a7+ZO3/ENz80z81wE7nT5tex9+5eaMG19iHPhGk8kHibYiHVNezGBBq9XK/7CgWTdscbm/aBk3j2gcV2KwOvugp98+NY6vYDiQx9+ZKCBbGZwzNh49NpN0O74SsCf/d0mG3jqLrc4et/dI8MNS90359bPZbIf+SIGVu6pDGW1ZtRiuup2vId8lfFS1ODDKk9R+OGIbI94qVa4vle4fC8QRcyv9gTHmC+rvwjl/kwEAzk79qaU9WElg6dGQPsN74JZZt+VErvZ6t0Jux8MzTYbrsclicN+IscZwo+91KxCxGWzlAcL4D2xFfxx0+/Uufcg1b6IipdjNn7xdfsnVUQdV0eUeJkxQ8eQh778gz4pBoL6PiYA33VVfjXlF7tkvxzTW929Iw3Z/8HTIlCZ6Pmhw0uAGKaQnb8o9oNcsLVHesjOwX2r2F5VH7otRr1P3bUaj0ObHCpNMJn8zZTyBc5HNgZC+rtjipyi2vO8lNiNpQ3XeqD8/ZW3R/Eu0Ccd9XDRM5RvzM2CL24qQK2YlWh3hlT3tJjXUYSopMdJ9HdDm+4u2gW/y1M+UGHp6W9GiNae+6ISsWdl8fot1KKstHWM4FEeRskN1Uierno52NpYnsMd7gZhmTPKdG9d2pkhfmacty+CXMBY/BDpY5Im1H66YxohJRH0d1K8y6m4Safnqvk1rl85Arn6k1P7REDM2u6XEZ+44MtndFDN5cY0JWzpLzOfW35Vz/SYDAOQk4xhIti3P2p6X/h/88h/2LMlfdKt1fo5tY3ysYJLLX/X3/qWN48UY9yRD0nUh1/OUBoU7ZXAr8KpbERDil7+GjN3haf9kETfDaZuamQb994l8KDP/olO3yw9x19Ti5e8pdjuuvO1t++R5nv/p8Ma4fF7cHDyxHf+eXsOqv9FsRDQMNr3+4cX2ClNefM9C3COf/naoP9yq13J4+T/Re0Oksw2wTPfLv842pWde2WRMEzm/7dFMDmDSyua/lni6r9MXLeRCvZbgirHsInTpY7QROvv2/xJnjvYX9mgO+768nT7NWwmbgptkMvpbs7E6lQujbOl+MOrriik2rCA2j3BaU5036caImGpNp/EGnTGVb8svCVPclo5jPEhKiFlJi7ZfbIca1Z43NJo5bGVwJCVGlG82gW/y1E+HGOpOVvRJz9SwPX01+fxW65DRlgaMMWxr60XZpjoZIqOeNjsby8sS70ViWmCSz0qWumvApZ3R41WdykSetsw5DqIY/KDrYJMn2n64YhojJhH19bFu5627BdqEUFvk0C6VQgn9SJ6YMmKquza7pcSncxxFfGeyuzFm8uIYE7Z0tpjPW49cyfybDABwXrKOgUTbsuPK2lB/sIzbFn8bhaX3TFP5h41Uu8N/nMzWNlrHCma5upMdLZpD6svyxac/p6aSIfn6UFzfhVcDg/tFTi4O6DPW13Ls9mjbP8VNb7Gy/x56FLoTEqYR1VrZpsZvxgR1JsVuvPEtb+gf2viaN58O74TtTFl5xTfrB6AaIDavy6Xsfwt+jst4+iMH6WRJWy6PXofuQ/888XO9mEviEn6ogq+LtRMm8uVR5njzFnn0ti9Ochzdk53sMX9e/R+9vgFwbeJ/sMzUb+rX8vWv+SmxPNHGtI9/JPNxwB8sywfslh258rb7wY9i1FMb/vBDndCmFe6Ul1cr8kTontjTOHgKrn3yLgi6HLcqd9kgNq/Lpex/C37WZORX9WvPtOFXZNUpI0uPOpx2dK39Ju+5DrlQBf3Rnl/GD1XwdckyFGg/kseIjQeKxaq3fRdsF6xxVHU7uWP8XXQB/cv8fQcAOBP6+D3LWL6KdCc0a279Vbi2N+4AALmo8Qyu+g4AAAAAAAAAAAAACvDv3z/68+ePOgL3CvycD9gtOzVerqy+AwAAAAAAAAAAAAAAAKgIWHkLAAAAAAAAAAAAUBJYWfgYwM/5gN2yI/e8BQAAAAAAAAAAAAAAAFAtMHkLAAAAAAAAAAAAAAAAFQSTtwAAAAAAAAAAAAAAAFBBHCZvl+TVPPHvrZIu/37coc54r44uh3u5Z/DBfkydzpiSS89f3rVs6UpcvhuJb6u/3Ej0Dedbq5FXgs+u5/vyfViKLgk+q3r9KJNbqGtV8UeV4+K8frxETMTLqIK9Kxt7JfQ1ZXN+W5UTh5nkPJOdE2UosZ+/BlWpK0W4lA7u5VynP06Xr6hc6ffHZLhgm3feOLiOT0Fx9mNPttE1/nQ88kNkT+OOOqd/VKwm3xOwpyXH2vF6h8ZLl7jjGBJp9/ayw0TiTtQnL7g3JBen0/JSHw8Be9/o8SBiC/6OIuqFsE+sX7DY7awrb/fL5UU6w9KRA13REKUJ75pOcLO2uBKw12VYfr1Ta3GgyVtdnQGZyNAGVJVQXbsDfZgqtx+FZIv4J5rXPfryqqTY+2FBbFUC13gsq59H/JfLvdizqB7O96PdAfeIiOv+O9Hn4UD8N+R3n0TvfZ4krdPbSp0btak92snvh9Ub1Y33+Cy9Bj1vP2mmrh9mn7R9bmSYOLOUrVIks6exL5ifPiIXUZtGO3VNfSZddQncIUvyGnNqzpS/OVCfRRuurj46/gOYIW1EvQhjt9sZJ2/39DMc0k+OTna/FMpcc2q+/karw4S6aeNc13QFbPGYwF5lcPV6dMccbevcBlSVSF27eX2YKrcfBWUL+SeaVzm+RLuhYbX3eam0HyrWTjxmzF66nbt0effOvdizqB4Z7re0O+i3wM2y29K63aSGOqx3P2jx+aKODFjvWdL3tE2jj+5porXepcliQNPvM9eR/Q/N1wN6DSZkhVwjmqPfeFSW3zRt9+glCMR6g5rtDf0iHgTCCE+vNDusaNZTpwJS7KYmb/0l72OeAe505PLc6Ord3+M1XtqrVX7uMPmcuMYfv+/c09jr0/t6Te99cS7ILDGtz9Ljcx554nz/+5VW8lGMkktcO70m4N8rP8cMCsifiJ/fMZVRbj1dVIagHIMtEuG0mn6RtNl8wET0iB2fCF6/kPePf9VZHzkoUnl3vOAJmtJX800yJrv4xP2ZZC+bHnE5kuW1k2xbh3Llff6S9vFSnOMyOQ8tuN1iNmyXNEw6JtejZDjt85Ro+pzBzpnk1e9JsZFBn2Tb8XmRnvMQ56PxmlwfRFwJGU7m94Q8J12XXvqrO7Y2yr9V6ZtaJ3Ti9xhtkXg+w/156lqiLRlVbo749etaEA/qpCBbDETkPB5HdVoKv+v9AcdBvH84wfdr5R0TRvWN5JFmJ+kfETuF+wKLnlZfRuUP+ytLuxFg9KOpzhr8e8L3jbeM+uh0bG1L9TrAsil/xNqHRLLam6/r9mVs9rbF3Ili4yCTDqbzbtjaHb/kNNsFJNhH1yk1PsKYYraMGLHpnK3Ni95jjgOr3LEyk+IxmXg/L08a2itB4rVoedyuuvWnedp13U/JFIg5aUvbeMQ1nUk3db9VhyT/xe8z2s5wPhmTrXzy/q7w5Uzq0+zlhUmyg4/LmNzWbxn1ciAem0JOp3hXtnEum/PV24TTcRntGLgRuq80WL9TX9Rlf1V5nbrdun2Fq+2e6MRPQKNJ7em3itss9TSOMe4ik8o+a9ru1FfwWHQn4dXacnK/RU/W4H4URH3tag9YdNLsdpAsDgNqH0Y7/+iwGByoPTr4h+ra4nhRHA/Ev9Hvgp1+vDuM2lqetrRc3iC4wvfp+etli2uDQC49f5XuKKKr/D67UfvQPgkq0NNE0od0jH43lRO1hU+s3JDcuq62vPXvAqN8jHa8Gx3aQVn8XU/HciSlk4eBzJyXLpNPsi0tdkn0Z9ReFj3kdy1/o7w+2eRzKPdYbDsec/LApKNKk1huAlF/JelorEc+cd05DR2Ot8Rk0I/T5TXaVp0y2sjoM4PtOL1eth6vMl/tmlYfdPkWg/ZhwB+Z0EEXo231e5VOhlhkjDZKi9+IzosBqXwc72eZM9c1/bsg1rZo5UbTCoy6Hm/R2rvMckfL04/DOnFeR98Zy1HoMnE+x7Itskdlsdopam+fbHIk6xk/tsmhXTPGtk8mP/L9DnU2HL98ntMG5/wy4z4z5B3Io9cBrSwpn34sKMfe+jVGP1YyBWlD+fskymBsYzT9QvJpMpl0MOrmE5NDryPG+qLp6mQ7JsE+us8Sy/Fxt5VePp8PfJBQni4b5xccW3XW/RDVT08boO453qLZKlSOo9yhMvV0J+IycDpLP28bM4auhcvTyzH2p0ZbuurrE9OpSMypbDjPUx76Ncd0znHiE9OB5Q75L3KfKX9juT6xcqy20uXkY91Wmh2z9GnG8nwy2yEki/ady3FqL/X7fWIyONRF/R7z+DF72Xx8zr4OXJ+/f/+qbzZ2h8VoIPxJwoccW6cYYeL1hjHcE6qDGnq8pLUL2s2J9cUUdwll83jvVFeErCKe28fP/cSrm58fFBEzAzEOYd+PIg6H3RLqWIDBbtq2CdqMrnyis6XTgxJxLek9FX66M3il47POepdeB1NKXJWfJW0Ivew6vX280G45Js/7ovlanZbkkN+FTHIXKIeRrxe8U7/jyZVMLxN9b5kSfGCCn5TpebD91Fd5jZ/uqadz/fc1rY+P0Fz1NaWz+TMLWv5WeU3k9Zu4T7ut3XtR/uLl7fKLICVm85SbS8cyyCOvg42M+hhsZ4tXS32ov/SI5j+0pyV9b3r08dqiDb+DsP+ljX5PIXLaKC1+Izp3JwdaHfcvdLg/T11LbVsKxoPeTpcpd4T62ycN1GqD/c+c6BiDCaS1wUmyn8NOVjnyksdfJgy2MPnLGr9E316D5r3d8Vyyzxzb0khZofbBxLnsnWijPOi+M9jBpEMR3Yz1UiN3/hGfpZXjRAkxYpVF94MrLnHgKHcZ2NqrDONJp/7UaMuC+haJOS1h8piNcUhXepww2n2m/K3lJmC1lUHOIn1akfbmSF77BRS5Pzk23ceP2cq+eF8HKkqdum8TWh0OtFv0aPPcd3hbJ889iqLjAue429PvRn2VtGk0W9FqFXwmWt0Bd0v9jSa8h/Lsk7ZD8xtIIILBbmf9g2XOcCOyeSb+a4idTp+2vY/kysyb1Te+xPhJKDP5oF5osHUPiA5bOGk1+6Cn3z41tNdyrspgcWpoeeNkh1dqnTiXP88lbx4uqaNrPaoiSfqUbbv6C/VI/HBeisF260n8HnmlFg/GecDcDL/kE+OSti0av5ew5Tk4m9zBD889+b+NbEPUqrTBF5SjzNjO6a9ms01r+cM4IMFnZ43hCvi98DjIpENB3VLbo5Jsl6XdM9mqrBgp2gZn5ayxfSZc+9OztOsVqK/MuePElH+mci9tqwuVd64xmSk2i4wfrVy6rwNVY8+T9P7eB5J6V8Ra277VgPUeEZuDdcI+s6FJ1zPVU96aIfaAsl2sioCbRW7/os/U1rv0IZ+DRYMT6KTZTZu81TYQ5qeusT1LEuAG4rh/imDPm2RrG1Xr2NIuv+Sqm4MajBj/Im7Q8MjLO9qGnkbmkN+FLDoWRXTYsjGu89O0GY1cNnXOIN+eBx3quyRoYEP74Aj4SbL6Gr3GHcZY6zAKYfWnmZgeOmeU11quiZw6JmLw11FH13rkSC5982DSx2Q7W7xa60OdnlpTGg7n1JInGtSkOfVTJ/QEeW2bdbWdyRbR89GGPSCrLW2cpe0ztNMF5U6L1e7rgDbfX+KnV8I+YDrWNtgg+znslKcvyEuu2DbYwrHORuP36W1Fi5aoi97pr47HfOYaw5GyQu2DiRLsHY9Bg41MFB0HmXTIo1taX6PjmH+p/bbJVmXESFZZUrHEQWBnV7nLwNZeZWrLHPpTky2L6ltGzBWl9DiJYMo/a7l56n+RPi1PeXkoebybXhcLjB9TuGhfBypHXXh+OvzS/Mj7W9onPO338AOBNb1/ncZTXIe95ykNgkpcpJ7a4o4fcrS1Vfqinr6njbvB3SLfWHgXcXoKRPqZr6mlv9oCYqTZLbRtwvaLn2DWqPa8odHMZQk9//VCoqF88ik+/SHRIlgCXydZdiPYhN6StvtBvW2fPI83v/c3nz/uz67DA4rgSev4N/aaU3b5XbDp6ErUFgZEo9cc9v1yOn2atz4pfTxik69LH6MNPatNxb/EmZY8L1AN7DM/bau/0Wwk8gg2H//R04lrWv794bbg60waRn/GY8eoR5RS5c1QrglrzGYg6q8kHV3rkZES9M2DUR+D7WzxKnSw1VceJK/XLfUjxI+ztcvAIo9tdZ+pU6mYbBE9v+3RLKlxyGpLa9tURtsXxdBOZ5bbFqsJOol8WtMpbWxbJjDWNtjUx2SxU5l9QTQvx7yj5Go3DLaw1dmU+O1OVvRJz9QICo/6zBgLEbgsY/tgIJe909rLjGOSouMgkw5OummI9Kl9jY4x/zP22yZblREjWWVJxdTmaXZ2lTtEzvpuba9s1+LlpfanJlvm0lejjJgrSuE4SfGfKf+s5Wat/5ICfVrm8nLGceHxroZjXcw9fkxDlHmxvg5Uj+6EdiKW2I81/jTm1FrM7PUm5Z7uZEeL5pD6wXVRh5uLHR0X6edqFxTWuKvTm3/RL1c0HeGxz1rUdXVNfXLXW1B9gv7q6HN+S0KLw0dH/vHLGjV4+6P3hviutkZIs5u/9W18U/VLctrMWsEbXodOpFFM/vhGwZexh3GD4hum6jrdo80D0urRuXW/J9tGdSneRvncc/xFqZauyW26u4zn7ROuaatrtxtmzmfz8+uULntUhrLamKxcM/ZcqYqt0ojb8jJjSZ1b8GdW7kGnS+lQdVuVJV+RNuCaNkou+/LtBLgc+INMjwH8nA/YLTuV2PO2+8FPafjpj/rwQ96PS07Lt05PjfhVgtpziX/AyIZW7t1QdZ2qLt+exsFKAu3jsiAhvR6dW/d7iuewLuW1UfdkozQqouvSow636aOkPfGq4o/ryXH9diMBq8/KoAp+D8twvXFQVeqAjarYKo3qxdV9cA86XUqHqtuqHPmKtQHXtFGk7LP3daA65P99BwAAATWewVXfAQAAAAAAAAAAAEAB/v37R3/+/FFH4F6Bn/MBu2WnxsuV1XcAAAAAAAAAAAAAAAAAFQErbwEAAAAAAAAAAABKAisLHwP4OR+wW3YqsectAAAAAAAAAAAAAAAAgDCYvAUAAAAAAAAAAAAAAIAKgslbAAAAAAAAAAAAAAAAqCBXmrxdklfzxL9m9uMOdcZ7dWQjPS/JfkydzpiSc4znkVg+51Grkecklx13/c5DvHxHO2bkUuWUT0XltMZxOpf1h2O9Kgn3vMvU2Z5XokwltiM+1/bhOctnXGSwULDO3A/5/XSeenvuuIlzmfroTil2TYjvqukJAAAAAIHoi71OjWqiP651PMrWJfO4Sd0rPx3yQoOoPS3Hnuzrj/kvgwL43k5yebpMsTwD9jQWaeJjFpFv0vm9f/6YJ8Yed0JCHNhiGnGgKK/+XGzydr9chn5cXAT5Y0X8OCyp4OXXO7UWB5q81dWZB6dk+948sAdwAO3IjYD6/BCE6mNVfV6CXGh3AAAAgGuyp3H/nejzQPz34g+fRO/9rIsL2jTaqft3Pdo8i7GBurL0GvS8faUZX+PPrEnz537KBPGSvMacmrMgTyGUlmfAftyn97U6UOzlRPGQNkKmMKzns9Bz5+d5mFFz3jBMCoNbIh4HtphGHASUWX8uNHm7p5/hkH4u/YOo/karw4S6+K1yHmDfMLAHAPdDzvq8X4rOGCPU26RiPj/mi74FAAAAuG32PzRfD+i1q467HzSief75kfoTtWhDv/L+JX1P2zT66NJxqCDGDrMR0dZWwPKbpu0evQQ31RvUbAd5KsRYpD/v0WKkTzKJBE88UbyiWU+dClh+0XtrQZPjoKVOb6uDOFaHGhgz3xBJcWCL6QxxcNeUXH/U5O1Svr445hlguUS3Q+MlL9ftEC+9D1UqrmR8jq+Jz+mSn8cpZXC8p7HHs81reu+Hl/3+yvI6cklwZ5xecWUFV+V2vPCTquS8ojKd8Ge7fT288a86a2bpdeh5SjR9DnQw6Xv67tvTVb+Ue4x2Z/sqm/BHs6/NXiZMPpGvYR7zCs4n6CxkqTm8ouzmr4T85X32GLXJms0n57eH0UdGf0cwpnMrP8Cop0G+ZP35/Ekel3rFxMsQMS2+n0L5dJw1pm3pM+ucWrYvp9FXgng7Ik86+7BUfUr0IZOnrpjqY3YZovkZXg0TxOUxxZufpy+VXV72a6fjyfao//1KK+PIxN2nRl9niReLHZPzj+dhIn5/vnrrx03QpquTSXIk6s1l1E42EGlq4r7ToXYtAXu/rmTI6POidk3ON0Euh7wCktodY/03+MrmQwAAAACksNvSut2khjr0WdN2x/9n79tp/0ubYOI1OgmrqL+t7G/cdCd0WL2dJnzlZFyLno4nhFzDDfVmbxG561TvahPFGvvfDQk1fV3E2Cn62rf7mBlUB0McWGI6LQ4eg/Lrj7bydkP0MqHV6kC7EdH78Jc+VitaHRbUmg7VDzIhAK/iPRxEOnFtlry0Pkyd3iYzGrXbNJrpDYgo7+lD5nPgMt6/7fnsxyRXEHO54vNJ79Q/KpIjL7nC29dj8rQl8bvGSlfqQDRYpDSCRzLKJDHdY7E7z85vejTj86sZ9bY/foPPOg6b6vyKZs25Zi8TpvL39LPVytgE8RBF3P86C3cCieSxDSPuS41Rm6xZyz2zPYwx7VrP0tKllH/EoKcxhgz656hXyWUIN/eEf7+UJjyQIDEgoYwxbbQvk1Fnoy0CeBKpQfPezPpEMd6OZPChVYYr+lBiKD9PfSwig2wfRH6LluFVtCR56snxFqs0BnmXHj2L6FqtJjSReQa6mxD5pPmUz+dqGyJ5m+xoKlei5aHOxEi8P0+9DXx28H021H2my2HSm33Xpo1aIrL83tBgsKFv3zH0PdVWAySQ3q8LGbL4vKhdnWPJIS+NuJ6W+p8Ud1a9AAAAAJCdOj211FeJS9/uL4aTD70bc2p9viSmlQ/v+WErT/64TAaLfl7usdkXI7fFhIKh09Ib8qCAnKY+NNbv4r4PHjtFXvvOPGYGVcA9DsIxbYyDB6H0+iPQJm/1pyxE7V7QGPDyeflFSPBN08HrsUJTvUuvg6n6oZQVUV6WdwB5Zl8ruzsRP+KOliiWF3VfaaC+lkdGmSSGe2x2l8vTxQ8s3iBaHL9MVIPPOq75vL9Spv++prX/aM+CSeY6vX280G4pGnbvi+aRPTtOuOqcxzaMuE+7LTFGrbJmLffM9jDFtGs9S03nqq8hnTGGDPrnqVeGMupvnzSY+h36/mdOxL7OGtMm+0oy6pxS9rfHE7c7LX9HsvjQKsMVfSgxxVqO+lhEhiA7vme9pXh0JMuTGG/+JQ2TjlnR8jH5J2ID97YhkrfJjqZyJQ56Gu7PXm9tPtPksOhd5xnjOT+0XNL3pkcfry1/MpdXpOj35MLBFjpF7epM0bzc6v8x7qx6AQAAACA7e/rdqK8Sl77dXwwnH3rzpM4weTKs/uYvZlgtxMiv9ZQwpo1Qf6MJ5zn7pO1QvUW19GhIn7lec2+PZtqEVfhBO7gxMsVBOKYfOg7OVH8u9gfLwLkQP8JEY7uafdDTb58ax1crBYOF33Dzh2fu876WsB9Tp/FF1BAN++SDRPxUl0vIekv2KEpSDJWtf2KcBpMze/LngFQLVlZM2zCVYSm72WzTWk4gnZk8+ifdc6kYrlpdMcpjiDcX+AHa5plqcmKrT9veR7YJw0vEdBJFy028/wr1tv5CPdrSbvlLG/6B0n2lFtdFFqAZfkmpNGw+L6Jr0VhyJU+9vFacAgAAAPdAo0nt2MKCdoGhij+pM+Un2fIBeHz/XP8VbHMBcgsl/U2aepc+5DPxJY2HU1pPxZhEvrpdowY/uH1vpK7krT+1zA94LzXOASWxt8eBJaatcXD3pNhNpUoizW7ZJm+5YVCraiR782uJe/4hpb6XAgeHVnassXEhCK5IXnKFjvqal9L11bHZXfwI8/hPUNfr1H3jVyPVJuNRey3HNM77p6qD1Tjyd/iOtqHVc+cjl00vIWtZZZhiOq2eBXGcoT7mwhRDJv3z1CtLnHZfB7T5/qJt8Ap71pg22deGqYyUsp/eVrRozanv8S7fGcjiw6z6M6Z7yvShjTx1JbcM2h9Y4JWa+h5MQZ2xyBOLN1eWX3LV9UFNbLltq6Mw+Sd63rVt0LHZ0VSuK5b7s9Vbi890rHrzK1pTGg7n1JInGtQkURezTsJnweTzonbNG0uxgXMKjvX/GHdF9QIAAAAeHX7Y3NbeluKtD7OOOUPwg/K1mpzlh+druXXVsXfej4m3z7KNheTbS+9fdOrS/TxbT125OMx/bdv/7EZtao94jJKyZZMcsz378xOSJX0FchQZM4Mr4C8SNMaBLaZtcXD3pNhNpUokxW4ZV952abIgGsqnJeLTHxId90Xp0sdoQ881/w+KfIkzpy0v+MmQaBsaBTYq5r+YqJXd5/3aslR4FVzPvDJV/fXFoZLV+9FldcWmb9lY7C70ag77/vlOn+atT3+ZddRew23+1yw5iIKnZONfbYuCsinBppeQtawyjDFt9/cxjm3pysAUQyb989QrW5yKclrTKW2CV9izxrTRvhZMZTiU3Z3wHpHP1Mi0mU8GH2bVnzHdU6YPbeSpK7llaNH2i/WsUe15Q6OZ6hz1OmOTJxpvrnQ/qLftk+d5/odldg0Bk3+i513ahig2O5rKdcV2f6Z6a/BZDLvePGG8XreOk7k83lgX+kGUgsnnRe2aJ5ZCfYIjtvqvyx/EXVG9AAAAgIenTm/+wMxfjSeGMuZxj4k1vTfU/bWG+N2/OP626U52tGh+U19eE5/+lno7fb9N/V7x4RWAQf9+PM+rYXdur3ov+Y/EaisKa8EfrRVjtp3MVOXJYzb1GniRMTOoILaYtsQByFd/BLUDTwVXEF7x0adZ9j0kS+Lc5d+7fgHX1hOEua24W5JX+6bXg9uEdBVj7R7jvwo6xWXIFivJ5Mtj6dXo+/VwGuhyZ/z9elevlZ+z3l6SsmK3LJ9H5TlXvgAAAAC4PP/+/aM/f/6oI3CvY2b4OR+wW3YqvOdty3G11bk4d/n3rl/AtfVMY0/j4Omf9sm7QDyZS5Thyo3EnejMO7Vn2oyy7IVUxVirevznoQo6lSxDrnjz6X7wE2d/RaL88APSj0aF6nwZnLPeXpJy4ibZ53k0DstzrnwBAAAAcCtU6XdjuZQ3zgHgMansylsAAAAAAAAAAACAWwMrCx8D+DkfsFtWiP4fK/CRyqLBVPEAAAAASUVORK5CYII=;" vertex="1" parent="1">
          <mxGeometry x="530" y="190" width="1391" height="86" as="geometry" />
        </mxCell>
        <mxCell id="e3uVdYMobHJducTgOgBb-4" value="" style="shape=image;verticalLabelPosition=bottom;labelBackgroundColor=default;verticalAlign=top;aspect=fixed;imageAspect=0;image=data:image/png,iVBORw0KGgoAAAANSUhEUgAAByYAAABkCAYAAADDlldKAAAAAXNSR0IArs4c6QAAAARnQU1BAACxjwv8YQUAAAAJcEhZcwAAEnQAABJ0Ad5mH3gAAFWqSURBVHhe7b2/cuo8F/+78t7IM2cGdrGHCzgD/ZmB3aSiTfWDMsycSZcy1UkDZejSUqXZcAXhCphdxBR7XwlHkmWQbP21Ddjk+3le3h1sS1paa2lJRpZ893/9v//PgQAAAAAAAAAAAAAAAAAAAEry//3f/0f+BQAAdu4ODPk3AAAAAAAAAAAAAAAAAABAFP/+/aP//vtPfgO3CuwcD3Smw/XxP/k3AAAAAAAAAAAAAAAAAAAAAACcDUxMAgAAAAAAAAAAAAAAAAAAAADODiYmAQAAAAAAAAAAAAAAAAAAAABnR05M7mkxuKO7O8NnsGBnAQAAAAAAAAAAAAAAAAAA2kY6/zFYnGemY7+Z0nTjyJudv7ub0kZ+vXW8+gAFbk5nHp+XE5MdenxPKEnYZz2nPvtvvpbf3x/ZWQAAAAAAAAAAAAAAAAAAgOuyX0xpMG3Kgqo9/X5Z0vLl97dc4FW0RbP1UZfvVMmnbTo7B6etXDsd9j/26crvXfm95KzkZjr4Vk8BAAAAAAAAAAAAAAAAAADg3Oxou5N/Xp0OPX4e6PD5XRd45W3RdH3U5TtV8mmbzuon4h2Te1qIycZsi9fcpON+QVO+HewgvWa0G1NyeKMhP7eZ0iBLdzfAMl4AAAAAAAAAAAAAAAAA4OYwbZuaP6bPNeRXj/Frp+rkw35BA7kIajO9o+5sS7SdUZenFXm605xIlHL5PIU8LMjLtFFkcsNl0uq736RzJTwvPo/yJY/fGGZb5PWR2X7Djiu65+dzelJVWMUerCDjfJRN3nxZ+txX5ltSViaHPR8/jdWZM22mA/UaKU9GpM8HT0xupl2a0TMlhwMd2GfdW9KICSfP0rQ7I3rms7qfdEjm1N+u6LeQi50bLam3TkS6QzKm3eghpzAAAAAAAAAAAAAAAAAAALSbDv0a92m7Ural3P+m1bZP41/perB0roEvbOJzDQn7a0bd41yDm+HbgZJ5n6g/F+k/H8PXmG1nL0RPn2KeIpkTLUenCSgu0+o4/8FlGgXLpLOnxcOIlr11mtf7PX2tlvLcbRFjC677r/t3qfseLWddunv4oPv3VN98vmn2etJ3eXvY56Ns8rrnvlKWI+Y7zwklb8NKPthMnYWlXTI9ssKlPOz77FW2n3ifD56Y5Ao7MKVnahreT4h2X2lw2X/RjiZ0L5ZHMjq/aNzf0p9EfhfIlJ1H+jx8UoStAAAAAAAAAAAAAAAAAADQAjq/xsrCJUbyh7b9MaXzkhv6WPZp/pRtW9mhx6c59Zcfx0nCc9Gfvx/nJTqPzzShJX2IQlOZxk/Z/AeTic9/lJFJTsLOs7w6Q3p8Znl9c4Tuh1K7v35Sn/03f3+j9FBHn2+qxR5pypD5KOfcl4TL/8aEdWRTO5fTWVhaXR7WxmlHX7zwEj4fsZUry3+zoMV0SlP2GYyUGc/OD+odGzFDCvJTvK9ySE/zPi1HfAknX94Zs3wUAAAAAAAAAAAAAAAAAACtQS5cWsmZyc3HkvrjX+mkhVjk1KMf6fxGiphfkJMcF6NLP/t8XocVKmTa0qwrt6LkH3X+I5pc/UAclexRbj7KOvfVFqrorBb/j/P5wInJdA/Z7gvRj6cnenp7o8+1OuOpG/uuu6LeWn36gC+PTih5HhOtRtQt7O0MAAAAAAAAAAAAAAAAAID2I7dzFVsqytVYchvX5jKhtdjGUv28UbZJJLg05e0RNx/lm/tqE1V8+LL+HzYxKVZAMsE+H2nYMSxX3S/oYSX3hObvmDx8imWtGXsxJc3SDR/p7TOheV9ZXQkAAAAAAAAAAAAAAAAAgJtBbPXIt4LcfNHuuI0rP2FYHWlaRXl2EvqzJerxQi0rNtN5jTJcevXnjVHRHlHzUb65r7ZQRWe1+H+cz0ds5apkvN/Q9EVZytn5Rc+9FXWzZZ78M5iKF4qKScvuIP2bs08bPAAAAAAAAAAAAAAAAAAAbhCxneuSXl5WRNk2roIh3U+2NHtdyC0297R4ndF2cq+tzlp+yC04+VzEAzsvjqZ0fvSItn+Ir8dUcaXhbFevtJHzFPvFCy1pQveiUCnTw0mmzfSOusfvEchtbGevJ1kW6lzKjWGzRTUq2MMzH2WW1zH3ZaFKvRuns6r+X8LnwyYmO4/0Pu/RSu4xO3j9oif15ZX73/Sy69E8yZZ4JrQe79KK8LTrU9o7viZ2ntDbudaAAgAAAAAAAAAAAAAAAADgisjtXLd8XlJfhzZ8S2hO2UKnLvtrTslxwqBDj+9z6i/5Fpzs/MMH3T+z7/KsYPgkVsGN+FyFmIEKSMOYPN/Tx0M6T9Fd8fmM01aVQqbj4qsujXbpKrr4FXRcljVNdidZfhhkuRkKtqiH0vbwzUfl5fXNfdmoUu+m6YxRzf/jff7uwGcSK7JfDKj755kO6mzjfkGD7h96xj7MAAAAAAAAAAAAAAAAAMDN8u/fP/rvv//ktxQxbzDr0RpzBDeDyc7ADXSmw/VRy8QkbaZ0NyJa8ycM5BSqCDr8vZOlnioAAAAAAAAAAAAAAAAAAEAbKE6+7Gkx6NJqnNDnY5tnCDY0HbzQTn7T6D3T5zfbGvL6k2ztswd0plPfxCRjv5jSw2xJ236f+Prs/mRO72+YlAQAAAAAAAAAAAAAAAAAbhlt8kUsZFoS9fl2kFgteUtcf5KtfUBnOrVOTAIAAAAAAAAAAAAAAAAA4PuByZfvAewcD3SmIyYm//79i4lJAAAAAAAAAAAAAAAAAAAAAMBZwYpJAAAAAAAAAAAAAAAAAACUBqvCvgewczzQmQ7Xx//k3wAAAAAAAAAAAAAAAAAAAAAAcDYwMQkAAAAAAAAAAAAAAAAAAAAAODuYmAQAAAAAAAAAAAAAAAAAAAAAnJ3aJyb3mylNN/vsGy0GdzRYZN919GtvCXe9vy9cLwOqWy1FP9rQlOn/7q7+svycp45NIaTNnqddm/V6uzGkPcTZoKmxMbDdsrre3U1ZhAnjMv7ZVJ2aaEp8bJPO6qYpNvjOnCPeVPXpkPQt8R2j3pon+7fqO0EkZr1WHlPk2kZMft5rc3lXo6n+DgAAAIC62Uz5b7f6ZzBdUPSQZ7+hxXSg5DOg6WLDRhUGxLglP9YKGX/sWdJTGYOpJX8naTl3LG2B/YIGLN/s1H6h1kd+lHRCd6Z8gI7R3pxAe1rT6/js1RhK64P5rnZ+YdaXJFQfwROT+8XUWygX8vfLkpYvvz3XcWKu/X6E6ft6NEe+oh/tFy+0pDklh0967MiDIJqijU269l9zPhBDLs117R1Gk2PTrdAcHV+PpuugafKdQx7YALSFoi+g76yT79HW6vaZmPxudzxTBsR2AAAAoGYma0qSRH7W1NvNaNSNeeBpQ9PuiGa7Ma2TAx0OB0rWY9rNRtTNTYTwh60Go6X8Fsd+8UCjZS8tg8u5HNGDb7aqQId+jftEy49i/ZI/tKUJ3Q/ld0Z/ruqGfd6Uk8CLy94h9oz1l6bbq7w++IR6V7axtG7PNKPuwD0mDtFHxIrJHW138k8rHXr8ZBX4fGR/+Yi51sxGzNTW9XRm0wjR9zVpinxFP0r+bIl6P0r7FcjI29jUZkOuOReXLAukXNPeoTQ3NsXS3D6uKTq+Jk3XQdPkO4c8sAFoC3lfQN9ZL9+hrdXtMzH5NdFfrwliOwAAAFAF0+8cnU5Hfob09pnQvL+kUeBqs810RMv+nBI2VhnKwUpn+Eif6wnR8uW4MoyvMOy+ED2v59RPD0Wwp9+rLfXnT2kZTM6neZ+2s9fo32s6v8as/B195WZ0Nh9Losk9ZVM34rdt6iq6YZ/0FAjAbW+/PWP9pen2qqSP/W9abfs0f+dtLK3b8Inls/1DCT9vIFQf+sQknzk9LrEcHLdsEcLPWIbbGXXZuXRpM58t5UuM5baZMmDwa+1Ln9m1LH0WW/Rrs/zYv8eloXzptZLXfpGWNUjPj3ZjSg5vx0ZrR82Tp8//0Kufzz/VnC7n3jB5c3Ltsy1D0zyL1U70umiF2mUy69uDxXaZ/AW9OmQx1V+1s1U+qwwusvzlV45Yvp7pwyK/opOTH6XXisn/5Uhcl16mpvXXLztWzuY2dBnO74NZvdR8fXY/LdO22VhtsyHXpPjr5rKvC19Zup4tZTl0EpTeWdfc0ndnG/GktZLKFe+vennmuvrbfZwNYqlHRrfeHeT0t/mSx4/o8um+nddNJq+aJuc/pfs4FSYzS3vy6zgdHo9b0lh1nEsT7r8cl4ycfN5V42PGN+ujndjrmxIig3rNybdDfcZX5s3boGK8SQn3aXP6DCYLu0ZPb0PPV7djUTfH40ZZ0utVfaVbwKhbzeRk8+rNRlZWbOyIq6/NF/hx3S9c+cZSj4zsRLm+s7FtLU1f0Lt2LF++2pdl5avXSJ/RzsuvHO2ehuPK343uMz5ZGJ62ccovzcull4K/OvPOZJNfOR49VPL3Jvhb2bYCAAAAfAeif+fo0OMzn1Q0rCossCE+n9cf/ypOegzf6JC8H3fSG77xB61Yud30uxnL/ZScmBn/OpVymmBMxwzqWMl5D9P5ReP+lla/1fFCWo+JulyS0fthmsoBITjt7bRn+j3MX3SabK9K+ug80meJXSlD9KFMTLJGMlpSb52IZc+HZEy70YNoRFz4ZN7nazBZ8DjQpyLJcsSnW0OWp/KGOqLdPCHXpUtWJt2/p0uv5+z7cbaaydedsbK4Ij+ZfHxmdkVaO7awmabLTbnsh0NC657+5IU4T6fzY74cVb9rYfcfL/R1lKvH5OrS3cMHE/WU5+y1mIaemKxZXUanm660zGdZ5kGTyaVvM3bbZSxfXj2yuOuv2tksn1+GKtj9QiV9opc/FMO3AjjIRhNbv4wyNrdxLR/02X119EFe5mmbgxAfDPXTMP2H2NdPWpa5XWX424InvUNWl07ZWWcbcaf1E+sfYXX1tfsiIfmGUo+MZWMT67MeRrTsrdPy3+/pa6VveZDK5/btPOfo404U+9lYHXJcaWx+wNOU9V9RHvroM/fRbuqwgc23XT7j8k2XTLdng3rijd+n3elTwsbrGS47ZZhjjEmWdGuj7SrbMpI/ucnUyG7c/2SPYu6/2O1RtsWRX28+0HfW3Xc2ua3l/YuRuwnn5fv6sipj1pD8Y7DLEtM2/HrRqd7u6vP3Jvhb2bYCAAAAfAdYP1nmd47uT22SyIq4N7CNWRgd19iwiOt+yk7sPYxh7LX5oKW2jeuevnZEuw/l4Sf+IBfGFw3lm9lrv2H3A6xdKyt8dcL1YdjKVTbawNnQ/vyd3ob+5anpwH9O754MeX6Pcu21NjurNWKGfMLg2Mit8KcO0uWmMldxU3GQP44czz+dzj/y5ai5JzN0uXiA5Hm+yWXiLM/7CdP41ymoMESaNAlT5zOTfkkfMtNMBnnamD6eY2EF2/XHTxZZwusfYmeXDFWw+oWX8vUrY3MzV/RBj93HT5kPsjJ5+qAnkmIoU7cY++qEtCu7TgLTW2UN1emxcKWNVLdHrH+E1jWs3Z+oM7bVK6O8IjQ2yR/l5plNOsP0qb0jYb6dx+o/pfu4E6Z+towO421YxX+lHtFHW2QJr39sWz1xDhv447hbxz6ZyiJLa5oNaoo3dp8OS88JHa+nhNlJ141bFuE7xy1hEvqz7dGY3bgvs8bJ372S3QB59eZH91v0nUXkFdHjenu6a7Y13b8Y3J/6Y0p/y0rL9/Vlus/4Y92JsPxjsMoS2TbceslRQ7ur099TZE5X9Te7DAAAAMC3pYbfOWJJVyvKyRD20XeFcCPGVsZxg4HOD+pRWpeoexhG50ePSBl77fksTv8n5Rezbeme3uUDVOJBrgfXrjegEoo9y3JT9jLqgz/EzNoVf6crzemZ3Q+4CNGHMjGZ7h+7HPFZTL4VTMw2bB5W/AWaE1pXeTeFUIgSEORN0U/fkloRBHtkXT1qOi/KCr3JDKVLP/v8nuuU6X6zoMV0SlP2Kfvy3ZRY2ymy1Fb/M/pPFS5mXwdN9EFR5pZm3bSjFp9KPmjhCvqPa1c1tkuvTh1t5FL2yFFfDNKpM9/qeVWJTRdstyJtiT4uw9HPltFhVJoq/mvSo0rderZy6320gyvawKpjn0zRNNwGgrptUKIOseP1MnbyyaL+zZ8cZjfwj/xGX05a8Hev9LXAGFl+DdQXG3TqzLd6XmX7zoa3NfFj2KmvFf6Ubf0lyj/jWOzc+ReIaBsuvRip3u7q8fcm+FvZtgIAAAB8A0TfWuF3jhJ0HtMVj3wyhHXRFVDGDSbEWELWJfYeZnivTHrK9/tpY69O+o7v44NcHflOvxkFbtwHYlHtGc0N2suoD1lPPtE4XtGoa1tRHK4PbcVk2ngTSp7HRKsRdXMvoy3NeOx+yiAIfdB/111Rb316kqFdpDPM/KWjP56e6OntLX0pbwXOZrsImiADiGFCa9FZq5831tLaStV2VUe7dOvU3UYuaY/6Y1BKnfnWl1c7YlPFPs7Yz5bRYVm931I8qb99oH/MU7+OfcAGAdQyXq/KkO4n6TtX+JPD4gae3+iLLZ/4ljB9+1ZNZ+dcfltnvvXlVbbNNLutpVtnpU+vyxWMmj+duy9ral/p00ud1NuOmuBv6F8AAAAAGyV/5+ArDEMehBITgvn3NWbwlYt0off+xd7D8Ov5xhlsxCAna71jL1FX0Bpu2l4dGvpWFOex6EObmGRthdGhzvCR3j75kwV1/Tjxi97YDcdypL74NZL9gh5W8h0QfF/qw6fYVsWLqLjjyUfTedMTlJVRAqIIOuzG9PORhp1yWxHlibOdIkuN9T+f/1TgYvZ10EQftMiU2rBGLqn/Uu2qxnYZoFNrG7mUPTLOEIMEdeZbY17lY1PRJkfq9u2yfdwRQz9bRodl0lTxX0vaI3Xr2crt99FWrmEDn459MpWg0TYQ1G2DMnWIHK+XsVOALHxbx+2f3+LdLOkNenqj/+c395u8zJHlV+EMsUFQZ7415lW272x6WxNbbfHtOvnT7Op2pRZ/DurLQjh3/gXi2oZVL0YqtLua21ET/K1sWwEAAABunlK/c+xp8bIk+/vrVNIJPu19jRnivY1VVmeq44Z0C1p1AnTPblbUydO4e5j0erGlP88nP/baTOku/6CTGKecd7XptyHAnlG03V4+ffD6DSK2pY3Qx2likgeLrvqDZtoAM/L7H0czfBMvjp2V3V+XKem5t6JutvUN/wymAT+cpIHgVO6e6WegKFSefz2dX7zOtL2fy7JdvR5f7LlfvLCAqL7IVrkR2m9oyoOuQpS+PbbjbGc2WcrVvyBfgAwu+FMiIinXxQMrXxytg/PZN5wr+qDP7ppMd9RV2meID/qvubT+3e2KY9cJx5/ejkenzjbit0f9xNc1LC658u1QmkVQZGPUIGPZ2CQ75tnrKTaJwfGRmn27dB+nYOxny/i0O03RD6r4rykt+uja+2gn57eBWR6Xjn0y3ZgNaoo3dp+OqEPUeN1vpyIBsnR/Un85o5lyA9/92aflLHedV2/noIZ+yYgr3xb1nY2PdwzhN0t6YXrRt8wy+XP8WMx+T1NP/kGUaRtWveQIzNt9b1eTvzfB38q2FQAAAOA7wMYNIb9z7Pd7+WHjgkGX3QdMaP3m6pFPDN/WNNnOqMvuQTbiaSGWz2YhtopX3xnJEWVknXiSlqliv59Kd5c4jiuYnK+zLcv/6TRuCL2HyRDbue7opbCNK0Nu9TqasvGUKI+NG/k4xfvwGFCx2zvAngx7+nQcf7zvbYm9SuuD14+1sYesfrz+on1kE43l9XGamOw80vu6R6uuDBR8f5V5Qsc4MHwST/+N2LmYF8eqdB7faU4sWDDBotn/ppddj4mUbXvD97PdBf1wMnxLaH4MhF0asXzW76f354jzdDq/Yt+SwADoYvJ8Tx8PqT67Ky673KqH63p+0vXg9YuennNb2MTo22c7Rn/+0ywLo1T98/IFyGCmQ4/vcxa8+bY3LN3DB90/s+/ybB2cy74xXMsHvXbXZEqfXj7GiBAfDLjmYvoPaVcMq04C07tw6tTTRrz2qJOydfXZOyDf4X3a3t0/XDPqktGjdzs8NrEB7u4Um37kYlOtvl2hj1PR+tkyOgxJY/CDKv5bTIs+uvY+2sPZbWBql75Y4ZHptmxQT7yx+jQjpg4x43WvnQx4ZRETH+xf5QZerOZi/07SXwYkfr3VSkhsMOHzhZD20Ja+s/FtjSNvvA1bZhX9OWYs5r+nqZZ/DGXahl0vOr68PXqo29+v7W9l2woAAADwHQj5nYOPGbpd+RnRrjentdJf+xnSW7IWY6wRy4P36d3RinqsP/5UZyU307SM0Yy27L/ZiJf3oE2Suu6n+D3SerJjZfD+nsk5WdO7mn/wPUxG+pCUeewl67R7YTLy8rr0wscp5/qN8Bbx2NtrzwB/OdECe1XSR1q/Hh//8/P8Pka0j0/Ltszh+rhjgeEg/240+8WAun+exYszj+wXNOj+oedGvJujqexpMWA3WuNcQL4KXJYHoneb494CTaljk+xeB2a98icyXn6G1vHWdALq4/rt9nv0cU2Jj03i0nEJNigCG4TRZt+B35+HWL1euq21FfhrPcDfAAAAgGvw798/+u+//8Tf+C3/dlHtDMKAznS4PrR3TDYZsW0K33tZmZkW+932d/QyGNDA9CmzMrOR8KXshvrxz83UEYBY+Auk5Z83za22f8Q1le/dx7Ud+PL1gQ3AdwG+7gb6uS1gTwAAAKDN2H/n+Elhr97DWACAW6Y1KyY5+8WUHmZLFsD6RNst9Sdzen/DMmY3zXpadL9hHcdweNM2a0Ydb+8pYV2vbHByN6Jln2+BFfqUFZ6cBnaa0G6/Qx/3HfqAOC4fl2CDPLBBKG32Hfj9eYjTK8ZhocBf6wD+BgAAAFyD/Kow/JZ/m2D1XzzQmQ7XR6smJgEAAAAAAAAAAAAAAAAA0Cww+fI9gJ3jgc50xMTk379/MTEJAAAAAAAAAAAAAAAAAAAAADgrWDEJAAAAAAAAAAAAAAAAAIDSYFXY9wB2jgc60+H6+J/8GwAAAAAAAAAAAAAAAAAAAAAAzgYmJgEAAAAAAAAAAAAAAAAAAAAAZwcTkwAAAAAAAAAAAAAAAAAAAACAs6NMTO5pMbijwWIvvzcRLuOA4kS8ZL1i5asqWxl9xLPfTGm6cRTCzt/dTWkjv54Drwwal7R5FUz2u4DswfaqU5bL+KqbK+nbS926OUedQvOsuy7noA0y5jmHTVXc+cfF3xDaaAM39euIY9LTuX3Bxu3ZzM8V62zsp88hj8+fiufP4+tN5dI+4LOHj5j0l6pb1ToBAAAAAIDvzGZ6x+6Nip+perO039BiOlDOD2i62LCRaFksY1hxn5Yrm7FfsLIH7D4pOs1Ck1EcY7Kbhs6pHizj9/2CBrzeulJYmpNOBuycKem3hfkMt5ddP3H6S213yk988kZvMj595M8z33XVLlQfWDFZgv1iygykB4/bZU+/X5a0fPl9sfoW9Xt5GUA5YtvG92pLALQRxN886KPaB/qauoCvt43v5Ptl6orYAAAAAADQAiZrSpJE+7wN5Tna0LQ7otluTGt2/HBg59dj2s1G1C09MdShHz2i7Uq/79l/7cS/yw893+TPlqh3T/fRaX6wkjLYvdaKHaMtrX7bRqdbmr0W67R5nbEzOvvFA42WPaaTAx2SNfWWI3rAw4KS1GeWPeZXh1Q/453uL2X015/n/PTkpA3Hp489LR7keVm3cW9Go9zEep4QfWBishQ72qZx5RvQocdP5pSfj0qwPDd5/V5DBlCO2LbxndoSyNiIp47Ou8oa1EX1+Ht79kYf1T7Q19QDfL19fCffL1NXxAYAAAAAgDbQ6XS0T8ZmOqJlf04Ju0cZiuPs/PCRPtcTouVL6R1Chvcs/fYPJfJ7NnE4mbPjuy9lQmZDH0uiyf2wVJoj+9+02k5ozeTOT25qFOrE8+pTvy+/CtJy+/MnphP2tTOkp3mftrNX/A7H2XzQkpiu34bpfS3Tz+P7nPpH3cbrT0w0U1f30/RU8/HpQ/hmn+ZP7Lys2+MTO79dkW0OPVQfhonJRFn+zJc+qyXstaXR+RUDfJmz9jCCWEqs/Bi5maZLi7O8ta2g8nmHLjHOylXT87zlaSN6WXy59elyS35SD3zpdHfGlLudUZfLqUcDM856q2xoyq4RZTMZ9LxNx0xk8sslturstku/Dhl5nbVy1eW7XHdf8vgRV1mZfOo1fv0WZMiVodswFldembyR+ry4fOo1J30KvPaKIV/vUwyIbRvm67P6VNN3ePwwoed10ncqm1qv4jYLTG6WJhU7q4uaX842LqxtMstXfuXkY60gF8uPJ33ps/N5G3BseXpg+Yu8Bmna0W5MyeGNhtayVJ3xdLm6uWJqcLxVyeRQy83XT5fp5Ptp2nC/4OTzMsXIWP3b5MvQz7tjki6vHn8z+dT8mCyqX1vt7cJW73y9YmJt/XmW7aPM4yX1mpwOo7DLG1aWnj48flryPhaenffpP0A3pwox8und7ados424pmCvwjETxfyPx6114ujnC+2vdD+dyaPmb7KB/MqJ6i+K+Hy9UDcX3n7OVi+Or9y48+F+z/HkXalenPB7MZe+bfHKTiZffTEzHk9ZFt3a62qXLTRNnG8AAAAAAACduLFk3NgrneDrj38VJz2GT5Ssn+mX/GomX7ZyH9f9SX3a0dfxQEJ/thO6/3VPE3VCZv/FrurTzy77u0wayf73iraTexryPGwTPpM5zfv6qsn94oWWk2d67skDHDmRNP510krn1zgn2/dFrGLt/yRF/UxBP6hHW/rDZ5VL6q/3wzT11ny8+ug80ufhkx4jqxeij8LE5Hb2QnT/TofDgZJ5j5bKbPBm2qUZ8R8YD2Jp9Jh9C18WzW5yR0vqrfmyapY+GdNu9HD84ZbnvaJnJe+4JdfLl1eip08pN/s+ct2o83pkZR1o3VvSKFfWksl20gP7LvUwfOPf+3w9qkj/6bWKu94nWDAcjGg358vRO/Rr3NefkDA0ChfLEbPj82mZrFu/oTJymJzZ8l1+7fs9fa1YL6AQYsuq+g2xYShh/hCjz2vIZ9ZniL1iSGUxx4DYtuG6voy+q8QPFbu+8+2SP0HDxGeDAhGoxSE+uGCDDmUGxm4bFzFt0oyI5YEx0UTeBpxyebK6dGcsL1aPT5aWJcwPskz2tvu8SzfV9ObqR+y+H+8XIf4aq3+7fCnivJggTM/bY5LaF8lDBux+7be3i1Kx1lOvUnla/C+uj7Lbg1MuNhRxyZvhKsunDx++8Ze5fXt042mLMe2naLPhWcZY3vZntVH1fjpmDGyiSn8h6hYUW/L447U/Jtv93icXP1/W791lV6sXx38vZq+3Suy4LKPOmBmLuyy7bm11dcnmSlMlJgIAAAAAgBMhY8nSYy/xW4ttAqRDnSFf4SW/GkjHipb7uM4vGveVbVX5qjI+edPp0k/1957kD237YxK3kmXSCOTKSv6jUT4PjR+5lX0bep2RWMkGwumIfXrVla0cbiO+sNWkdx974nN7uw/lIUr+QGSZrK5AGX2IiXTqkXnuMUIf7CZNkhzYvdmhP2fNMSOZH/rUP6SH1ofJ8W+JOD9hZ8QXkX6SfknRzvP0ufNHDHmvJwc6ps3gZeSuM8mtlWU6n4OX1Z+zKzk+PfCvfeV6FZN8rnqfylpPSM8zV6YuY4apPFN9ffp1ycgvVfLLy8Up5OU6X06/mgwmfDaMwZuXr44GtDwzQu2Xwyefqk+vvVzk8zbUW+R/yiuubZiuN9U/xH9D6miSwVReDlXfWn15uZPDnNchazz82mNDMuRtsodRLp63O25o5zS5THVS8yuT3pdnBr8uV5ecj2R5qbI49c9RbWAsN8N1LsMgo1EONS/+t6NeWh35tS6/MOSl+atJlorymc5rnPIv9EUMPf4aZBFlyfyd9s7gx/Ly2Oro0lV4vU748jSg+R+voq+P8tnDo8MjoXrKocnrKytUH6Gy8Pwye9vO5/Lx6UbL0yevKT0vImezvL5zNk6JqbOrTgbU8ky2r9kGWvuL0nfxvNfXg1HLyeOTy4BmQ59chvPBOjdQKLtsvQznTf6hopVdTB83LrPJF6IrBY9MdnxluXTrqquCJpspTYn6AgAAAACAI3///pV/cULGd+6xl/iNgo0BtU82fvONlZ0Yys7dx4mxohx88r+zMa16XMinDFDLpGEntXqIa3PjWjVN9rc1T6Ne3GPpWHQ7t41UF/050yH/mqzFvRH3LWGvaP2l9zzCJvK7sEfOhs3VmUcfBbLrTec44foIf8ekeAohNxMqlnWGLgNO9+NdjvgsKd+WSFmaLfLe0qwrZ1H5Z1R+VVfILPd+s6DFdEpT9hlUKsuHo94ZK/5C1Qmt1Xf25J6Q2HwszUvTQ/DqN0BGDduMOKN2W9qp04ZReQXW8WryFXDYK4bKMaAkPn2fwees+lbry598mtzTI1/OL/eKF+1U3YuhNLFt0keVJ39sBOYpdLak43u+5cokn5rsPu/STZ16U+rn8/0Yv6jNXyPkM503YeqLYilpbyM+XYXWSyVQ/5Virs8eZ6C0vIH6CMcTF0rpJu/rNchb+xjLXye3jSL92ElgbLYSkd5U92Bi43VRLqtOfXLV4Efl+igT8faqFJ9iCdRVLTJ5yyrXx0fJVoNvAAAAAAAAiW9sFTr2mqz5wqrTR/vNQlmJaGMzPeV/J1+7I8p238eJlWTLD+KjTr6iMVuZKY6L33vSlWHquyLLpBGrz/pj+sHP7lnh7FrXzlND/n6/5Yj4ZlXBqyVFfUv+NnNzDOktmVNvxXTIfaL7Qn+en4ndathx6q9Dj5/ML9/kOxrZ/wsbbWek7LrbYGL0saHpYERL1ibtO/KE6yN8YrIGOo9826KEkucxkaisunXRhNZqkBEf3zupysC3qbsjpmP68fRET29v6Qtxz4i73ozxmNVe+SFXILcHFNE1fZFt6BZjZtz69coYxbltWacNy+blqmMT5Ls1fD5Vl8/59D2k+0n6Yzbfg1tMNvGBixgw8MFF1XZ6ot42eU30HxLvuivqrd8de5P7fd6lm+voLdYvzh0jS2Lsi2KJtbePc+jqUvH7EtQhb0P90Uod8tY9xnKBftxG+Xh9Tb+v1kdV41q+dMmY6bZLnG7Lyta2mAgAAAAA0GR8Y6sKYy8xkWh7yI+NBafTdBJy+KbkHfGuvOE9k45PVPJ3RSqTUvw43/rS9CB2dJp0ApO2Mxp1u9Tln9GStq4J184jPfNh7eS5wm8t3xymwzc+eSZ94o053B9mhtreEyl9szUE6UNOSvLX0PALYrDoI3xiUmSQe6Ld9HSBAz7pzzKizpBXNqF5X/4AasqbkV5fBt74Lc4kAgALep+PNOwwWeThc2Kt95Ff9MZulJcj+dSGRLxYlT9lsWF61vaejiRAv34ZVYp5HandlgbqtGGZvHx1vLZ8BRz2iqGGGFAKn77r9LkAfQ/vJ7T981u8RzD9ITudlPrzm6etTxdxbdKHIyaWJjDP/YIeVnLPfv7OQdHBOdIE2MClm/r0ptQvwPeD/aI2f42Qz1JmEXNfFEWsvV34dBVcLwVfnnXEXJ896qSqvD59ROOJC6V04/F1Rhl5zzrGUusUZKNincoTGJutRKS32COU1G6h8VqRy6dTn1xV/KhiH1UkQt91xKdYfLqqU6YAu0TptoxsVXwDAAAAAADo+MZWlcde/HcXou3qNxWSbF5ptuRvoLRgKrtwb8p3N9nSn1f+rkj1npEfZ+PQ1/y7IjmRacSYtU/zJJsUSj/8ebql48cs/r50viLNiOE9le53An4zxAra3AOOfPczmpBYyBqrP1N+wpdsKywbhk8fAn1S0ulGEfqIWDGZ/sg6e13Ixr6nxeuMtpN77SkG3mjE+T0T+IGdF0cZ/MfKrvJjp3hyQP6d5f1wynszvaPu8buf7ez1+BLN/eJFUV6Hr4CWT8VnKIGHy/kSt0WP+aWgFpz1Vhi+UTInRQcM0RCW9PIifumucLPv0W+ojBzZOGevJzsvNP1Vt2WYfl02NNncRaw/hNSxrI/V7K9ee7nIy+KPAVFtgxF2vU/fVXyuhL67P6m/nNFMmWzq/uzTclaMh6UJaJPWWCvZrmwxMcWX3oQvTyPMB597KxLbAWSfgXxqzYrDBi7dxMQyA/Z+xO/74X5R3l/t+vfJZypzwOxgKNPUF8VQyt42fLqKqNeREP27Y4A/bvnsUYW6xzQh+nBjbzcmwnTjbYuR8hptVvcYy1knh40q9dMpPhuU7y984ymTPXxtUBIQr931cvm9T65yfnSiZB8liWszeVz1LtordlxWJERXcTLZ8ZTl0a25ri7ZTGmq+gYAAAAAADjhG1uFj734FqfqJ2P4tqbJdkZdNtbfZOc3i3QLf+eKQlm28z4u3WlnuWR59X4o94yn48VXgsSlybZxzT8oyx9+Zzdy+uROMHKHoOy+g42DX2db6s+flLp9Y8Sq1iW9yFdD7Pl9AvOXk358+kv99Hh/KfMbTVl+aYa04b5ksGsj8eqDfR/wSck5JU9dUb9jWxTnK+jjcCR9MaX24srCyz7ZNZP05Zf805/oL61Mr0/PUX9yWK/5d+WlsevJ6TzLd6K9JFPPW6SXZ05wGfMvH83knh8m/MWaMq12jZCDH0/lTeYnOUQd+It1jy/gDNSDLEt/0adJPnbUWu98WTJf5U2q4kW2hReuZpjKy+eZwY479OuyzXqS18da03Xezu6yDPIF6Dcvg9uGjJzNXUT7g8CjT598Ap63wbZ1+6vXXg4KetTrLeQRxzNSecQ5rWKWuhauN9RHoJeb17f/PMciQ5S+OVJm9Y3HMvbpL0E21KXg6xyzXLzcTI5CvJTlHeuq2TQtd7LW7a7lH5C+aD9PngJDXXhZ2rUJUzmzldCpqSyexG0Dl26cehMYZDzK4ehH+DUhvu/1C46el7CBPHOSRc09PebWf4B8+TKPF+TLTL9nddHjb/5ahurXTntn8DxsNtAOMthxZ9s2nFfKLpNncAzg52XehX4yV4ZuD4Ncqg6P8OvyxxhRMSukLF3Woo45JlmyvG3txlC2QC/PrJvwtqjL6yhT5qeeO9cYK9/+vD4V1E+75HHoS8Yhc95pemdsyfmbz9dFGZqMduzx2l+voHbqlMtwXp45weUo+kf5PspXr+y8UmCuvXrrnbNXlqe4XquIqW6G8gXsuENX8TK58JRl1S2nWNcgPynoxy0DAAAAAACw8/fvX/lXhm9s5T7P7z+O55SP9jsLu5/S8hDjxLUy5rOhly3Gi/LMET5+zJfHsR3nBKeRY1FzJoeJcq3Qg/G6lOL5hB1T6xaij3CKdm4Z6j144b6C49IfP8eOq/cV3AfZ/dXp+qIvNVpnDn2kv5tk5/RPeg9VXh93/A92QUvY02LwQPSu7gfNj3VpNU4cL928FCb5qrFfDKg769HauL92/eWBS/Kd7NeEujZV37fkB8W6iBj251nfYmK/oEH3Dz2HvjegVkz65sea0o+0mzB735LPn5Mm6elS7eaybbFdY6xL2aAJNKVedftAk+xVd90AAAAAAAAg+vfvH/3333/yG7hVYOd4oDMdro+IrVzB5UlfgIul1lXgy40HNDB9puUWxN8O0A04P2KbNL79RLq+X5BuVfGT2rDVOogD9gbtAWOs84IxBsgDnwAAAAAAAAAAkNKyFZNE+w27cR2qL9ls1tPiRflKwl8UyvfD7k9o/WlfVVRbeeAqfCf7NaGuTdX3LfmBqS77xZQeZkva9vtE2y0La3N6f3u8Wn2LMjarH2k7Ifa+JZ8/J03S02XazYXaYkvHWN8ndjWnXvX6QLPs1TT/BgAAAAAA7Qerwr4HsHM80JkO10frJiYBAAAAAAAAAAAAAAAAANAcMPnyPYCd44HOdMTEJH/RpPwOAAAAAAAAAAAAAAAAAAAAAABnASsmAQAAAAAAAAAAAAAAAABQGqwK+x7AzvFAZzpcH/+TfwMAAAAAAAAAAAAAAAAAAAAAwNnAxCQAAAAAAAAAAAAAAAAAAAAA4OxgYhIAAAAAAAAAAAAAAAAAAAAAcHZaMjG5p8VgQIu9/Foz+82UppszZX4WbPrY0HRwR3d3/By/5o4G51KapH7dmeoWX5dm2LSM39Zrt/b5dhsoayObP6jtVh6qTBnfC+dafnWZeHM7hOjrPLY067VyWSz93d2UtRjQKG7OLrcQF3gdqowl8umr5tdEbsHOOpeM53VxHpn9XKvcerG1y6b79u21vcsDHdYL9HkeTHrlx+LGE7cRrwH4zqTt3nS/uF8M6G6wYFeEsme3nizNHc+PxZLpRkt7/nhhiGH7BQ2YLEwU/kXWVfkMpuH9yz77bdCRll2zUHTAf0ecLnQ9gBzML/K/twrfO+pQ/6j3wC5/y2PMM3WMZlFWHzn/HLC266pdqD7ONjG5X0yZ0WICzLXY0++XJS1ffre+Ie8XL7SkOSWHT3rsyIM1UrRpU3V3OzatRjv10J7YUQ/nbrf1cy2/Qrt2ERKfrxvDYT9weZran3y3fu7cfEd9Xjee18W1ZEZ/dAli2yXiYpFr6uQW7dH0OqENmPje8Ro+AW6LJb0UZtni2C8eaLTs0To50CFZU285ogdlEuny8WJPi4cZ0Tyht6E8xOiz74cDk/GQ0Hq8o1k35CFenteIlr01JVpadQJpQ9PuiGa7MdMBLyOhJBkTzUbUbeIEWAPgk9WD0VJ+O9F5fGe64/pTP2uasHO9H+kPs25/M9OfM/upeaqO0QDK60PxT3l+3JvRyPNgQYg+zrhickfbnfyz0XTo8ZM52ecj+6vdJH+23GPOWI+8TavrbiOePqh7pcXt2LQaTbWPj7bEjno4f7utm2u1r7b686UIic/1x/BwruU35+O2/elWaGp/8r36ufPzHfV5zXheF9eSuXq5iP8hxLZLxMUi19TJLdqj6XVCGyhye/cPccAnwO3Q7/dpO3utMHba0+/VlvrzJxrygNAZ0tNczfPy8YJPXM1oTu/WFQYdGj4+04SW9OGr+P43rbZ9mj8NpfwybZ/oTyIOsPHniJb9OSWsjsOOUAJ1Oo/0lsypvxzJVZsgYzO9o+4L0fOa6UceO8F1l/skH8xSE7oXc2c+fysiftulrp5neqoRVNKH6p/y/OMTy2e7ot+WmclQfciJyX1hOXK65DI3M3+XLU/msDTipkwuxxycbs5EZWdMgO2MuuycugxWTaMvg01lmG7k0tCQFsVnerPy+fJlsWQ7vi5cXk1GkX7Djmey8qXR7Ly6bFVbUl0mDacufaTXiklvFoz0uqrky8vPbOvnQ2xq0h23wykfqYeM/SKtzyA9P9qNKTm8UfwzBPm66EuqdbkYRl/hZDLLrxyxFD+re3Y+bwd3+Xay/NT0XB552ohe1skuaV5aPXPHzm+fogzNjx3Z9WqeeRvky/M9qRh7PSeVQ2+3mWzpFQKjP6rl5WzoouUx83LxRs0zlUP3Kv28bu8ydbPUxemTpzZgazeqvkKuSfHXraz/xdtP19fmSx4/4pKV4zqflS/L0JVtxulPelm6z6Rl1TtGYFj7NR9+WavZxYG3L86V62wDbnvafD5eb2neajtpxRhZkATrU/eDirTSzpxi/sfjVttw9PPmNlVfnrY66zGWky+jvnhu1m+aZ0xb0WXO0sf3n80cT1jyPTkHQz3HZIrqxyJpQru0YL8+X25824vvex00VodZXZUc29BPNdgnBS2yd/FYvnyTrdRrmPxqWnFefuVo96McV/6xuPPiutHq6rWL/Mox3kfnfbRKXfS0egziuPLO5FGvOdnB7BNZmjrrAMCFGD/TvO9aNWlpE0c3TydGxr9OUxudX2Pq046+ZJaFeMH7Pt5WeF68fW6KMaH0OIHFl4dZj9beidAu/ewT7b42sjw1s0wGdqzzg3q0PU5Cpgzp7fNTrsbc0MeSqD/+VSyv84vGrIyld/bzezF84xPVbLzelQecMFu8LNOJSPHV728mstWWTaSSPjqP9Flil78QfciJyQ79Yl68XWVLnvnMMH+iQWkU+y+m/mzmmDf4Ls3omd2UsYqxz7q3pJGMGLyyyZy1Cj6Tz859Ssl5mtUxTUJjKi43Xo749K15eacOCxSjJfXWcol0Mqbd6IEFjPi6mNjOXujr/l3kncx7tJx16e7hg+7fU9l5fWevuuyxaerTR/pkyJqvsZ2sWV5mZ0ltxm+ks/LYIEcpr4xNTSyZHVilRR7JnH0/PlHAbNadsfqw/FlwPfCnOhyz6y5CdHfC5ivydAB5O8SVX2T58kr0xHSQ6WiUH8SesNsl7+sMQ/DMU6992hg7Ulw2SGW0t5U8sdenhLVbE3Ybumh/zDRxjngj7Cl+dDzJkfkoJ8TeZerm80lbGwiJz6ExPKRu5fzPjD0vNhBStzJ5v6evlb7lhE/WsLpEjDkc/pSWZY5rGfWOEcr3ayGyVrGLHb/MVeOyak+zz5fRW3v7Oe5zbn26/aAcbbXzibyefbYRMjv6DE6pPCN9KE+YLjGeyDjHeIJTxd9DbBhGE9qlnbJxMZXLHcfq8I2UJuuwjf1Us32y2fLl7c3I/QYQZqvy4/mQ/EOJy8tvFx95H61SF2Fnzz1jWTu4fKLOOgBwObr0+M6cfOZus67YGgef9Mvdt77MaCvPZpQbJyRiC9feOuSh94TEwjFWf3fsTlfkLUd3NOCToceHLiSiH7dN9KT9Au2+TnmDODavNNtO6Nk7PrCxpy9moN2H8vAMnwxvq0EC9LFng80t9cg89xihD9b4UpL5oU+Tw1p8WR8m7O/5vH+gSXrksJ6c/jbBz/fnB9bgBawT1b6nefYP89OBNM2xzOTA2uChr12Qwc/l0or86GAUKbIu64larkEOkZ9B9mP9yqSpWx9pPU71yqc3lKfpyYAmL788b9O0zGDdFcpLr9dtaKpbQF003eXlcviKSQZNTkOdAspPCakLR5XPdD6Hape8n+VsVr99DGjpeF2aFDtM+GxgKM/pE77rM3i63HUMU7vV1OUsmyHO5/M1laXWMUekDaP8KkOzc5k0keVqdeKk1+v1t+kpf0wl1j8YZfQhynH4pNYGeBG++BxyTU11E9flj+XL8uRl09lRFp+sJeriQkvLSdMb2xOnsr/7bM7PO8qPIUZWm9yabmy4ZDbZQ72+nD3N/YlPbzwvV1k8j7b3cwacfhBTvqscn1wGPVzSzlb5XLYxnNcok6cBrw/xS9RySujS1L7FdfljDv1GtpWofiHD6asMb5rIcrU6cdLr3f7FMeSr6c5noxI2FPDjuXRauXmqymmWw+SjKSb5TNcbyo1qJwa5VLtm5HzDTsN1WPCdpvdTDddno+QzoOXH0OxnKN9nK5FfliY9r9W94F+u/DNMes2X7c+r2Le57WKX21DvgPLtGNJq+PI2yKPZgX/N+0TddQDgPPz9+1f+xdH9lrfprD/Sfdzm37Jd59pHinKef1Pjhen6yDYo4GnyMrLYZm5jWZ7rQ5Ik4rPmdcyu1WISQ8s7JUlYnUT+TE9MlomrPgpRfUhN6HZuMB7dcVS/FBjT6P6mk9qe55EmYbbneeZs0gidldFHgVQXentVCdfH6R2TYtmwXJK6+aDl5J4e+TJVOeO++VhS/6e+3nO/WdBiOqUp+5henqkhZve3NOvKmVL+8aVxcnqagG+rM10o2xWUqMvFqV0fHkR5uZlsVU+SKJvGIspT9taWT4dEmyJadw5fKUPttsuW9tulstpFLNnf0ko+ti1827S0P4Sy9mld7DCh2CCwrRyJvf5qtDxmxlLWn032VLmYvfM+eYH+onG+XMEOddclwJ9q7T+9Nq/Wr1WT1WEXJ7EyV4jLVkrqTS3rFvo5Sa0+e6TFdjbhs41JZh+B9q5kn9p0acKh3xJtpfGIOtVw/yKI8PdabdiEdhnJJdpJFA3XoZpfK/qppvtk0+3NfwM4xSVh3+w3gNptlaPO/KPzirWLhyp1MdlZ5dx2yLhUOQDUxJC/l275ErjSWYmtJoT/u8ZkjjZahfE7rSfFXRoytrMRdbtd8RmtejRP5MpKV+yWdDrp9q0HvoJzzUags66y/auyEwKoj/2CXpbp+xOdOP1NvuP0TXlHqHgH44yCNuZoEl59bGjKVyNP1o4dHsL1cZqYZM3kfpJOcOy/mKq5pvkASmxVw5dgqttD8iXRd+KlmT+enujp7Y0+1xN5zsWE1mJ7AfUTsvTZTOeRN9aEkucx0Yo1/ONe0TF1uSb16qMaZW0agz6QvOuuqLd+j96jOCVOd3ZfKculbOezi9zKRfROfM/xKr5d1j7tix3flfbHzBjqjDdNAG3gurj86Vz9p9vm5fq1S/T1durvi+MpJ8Ot9XPn9YP22tnGOWzjyvO67TQEu34xnmgqTWiX8TSrnTRbh+3rp5ruk82WL/0NIH2fmOk3gHOPKerMPy6v+u1yTl2d2w4ZlyoHgBroPFK6o+uC2jzHNnxb02Q5yr0zMqU/l9tN88/nmzJmdMVu1n/nsuoM38Srn8TvvbxPZ8fMk7R8C/ct3+dVTgKBGDavM9pOnusf20ubtQ23PuSkJN8i+S2yl7HoQ5mYZA3rfsIc/rd4J0HaONIB7p/f/MlQ5UkD8aQo6/w+H2nY6YQ5vhCg+JRYvuHFkKZl5Q8f6e0zES/SzZ48CK7LtTiDPpyYylOf8ipj01j4y4FXcg9+8QQIf4lviZJK6M7lK9HUbrt0z3HjXuEBdhEv4F1+0GbD7Nkfk3ZPEkMF+7QtdhRRbOBrK3lir78irnbQ+JgZS1l/tvjbkYvZ2+OTjHrbAKNxvlzBDnXXxeVP5+g/A2zuas9WapHVYRcPcTJXiMsOSumNcVP93Dl8VqHNdi7gs43lvBNfnnXYp0ZdmnDpF+MJFxH+XrMNm9Auo7hEO4mk6TpsWz/VdH02Xb7TbwAftFR/AziDrTTqzL9EXnF28VClLpa0R85th4xLlQNAjXQen2myndEL66/cqLFV3y2O437HHcfRRiszpLc163c978zMY43dm1fqdl0PWvA+nfR3VGaIfp1o4nqJO7DAJ4gNuov1t82U7vIPyoi+v+wuK9fCog+BPilpbXacCH1oE5PU/ckayIxmysC1+7NPyxmfLb1nzUBFaeB7JtyLvl1A50ePT+uzMJKRDoz5UxFpsj2T8466x++R8JvE7uAUAPZpwDoSVZdrULM+CnQoNUFmAVne66m8hZgFV3URa9NIWMN+7q2om20xwT/8pb7eClvqEqo7n68w+BMr4jSv9wPTizhqo7rttvyl5vLi/eKFljShtN3n68px2yUNmEt64b162W1cOaXtw2hT7JDYbeBrK2XaVhxx/hhI62NmJKX92eRvA5Y2+16/vTO8PuloAyHx2X/N+eoWjRwI8hfNC1lYW1hoscIna8118fqTJ05H47F5QL9mp4KsXrs4CJC5fFw2U/D5KnprYz+3sumT45Ix38+ZxiYW2m7nAj7bmM6rfYaJEHvH+lCecroMwqdfjCc0yvu773zL2qWHcnGx7r7XQQt02Kp+qun6bIO9xZiM/waQ3wqwHlvZ70er5G+5jw7NK8Aul/tdx5TWcM9YKu+UMJ+oXg4AlyfdjWK7LbZQe2yVu8Vl51kbf51tqT9/YrkZqHLfGopY0ai2vwBssXt4z2rKt4dlee356kn22UyJi5xNEolVmtsZdVmc2YinD/h1C5p2eR+zptgFbN8BoccsiCapXlWEj/XnVNy11Odvaaw9xvyj/Zi/ievZed73V1k8dAbK64P1qQM+KTmn5Kkr6ify4h9xvrw+9IlJ0UDYv8qgSczms3+12VKx9LpHq256czZ4/aKn59z2H8Mn8fTSiJ+XI4fhW0Lz441dl0a79Em9UjbiMqxPMtzxvUjmyakhhtblitSqDwPDe7539+joGKI8OpW3Yt+OS29L2jSK/W962fH9tQ+ULmtPaD3eBQVxY11Cdef0lQ49vqd5i7wePuj+mX0XCe1UtV1//pM+HlJ5uuqe4wytriF2YaWKgMn69PTp2JJUsE+rYofEaQNXW2FEta0oyvljEDcQM6OoEm8K/taj9fvJ3+qzt47XJ11tICQ+B1xzrrrFw9sCG3jvTm3hR64t+GSttS4ufwqK0/E4be5rzzYqy+q3i5UAmavEZSN5ny+rN04L+7nJ871ZnwEyFvq53HcrbbezAZ9tiuf1PsOEM8+SPpSnlC5D8OkX4wmNSuNN3/k2tUsfsXExpJ3USRt02KZ+qun6bIO9mebT3wCKW2RXs5X/frRK/sb76NC8nHa5/O86xbSGe8bSdmAE+kTlcgC4Ap3Hd+bf8ouCK7byNOvJjkY8BnRHtJus6d26/6bhvnVc/zjhOFloed9kEVvsHtJbwuVlbVm+n7I72lFvrfY96TW8vY/Yed7eu90Vi4MlttX8DmymUo/8IZUtzUZcX+oKVznZaFngE+dv0ja7F1YGv75LL7zvb1IsrqAPMWHJnyNYMl/neSifB2P/FKEPdoPVApLDvN8/sBtCIGinPpJ5/0CTtfwmSeaHPk0Op6O3ZGtTXfgxOvRrrqDQrabHeMLscwucxwZ+Lunbt9SOytGueHMtnzwXt+d/3yc+XosmtQHEz/MBO7cP6Kl8/L+Wv8fa7NJy3qJPQYf10nR9Xlq+tnLrfgoAsPH371/5VwzVY+t64km/nlT+3bRRiPHo9eJsOTt/b6AzHa4PfcUkAGdEbEXB99JWJtPFHs39n9SqLZcbR/qiY+sWBoHY7bOjl8GABqZP8FNBl4QvMTfIyj+NlBecA8QbEIc7brTHn64Z/xB7LwfsDMCluJ3xMXCD2FYv0Gc1oL/rAxsA0C729LWTf34XcjsgIDSBViInKRtPsl4f8LDVibbqI5lPDn3mdtTnK/zo0J/MC/W4JVsX61LzE5biiR+uz3qe+gmxT/u53lOul/RtxMwwf26Gnm7vyetb9L/vER+vRbPaAOLnuYCd2wj0xHRQKv63Zbx5eTlvz6egw3ppuj6b1Zc1GfQfAHxPLr9icn2YiHGa53fRW1sxqZJcPtpi9V880JkO18cd/4PdYAEAAAAAAAAAAAAAAAAAAETz798/+u+//+Q3cKvAzvFAZzpcH3d8dlJ+BwAAAAAAAAAAAAAAAAAAAACAs4AVkwAAAAAAAAAAAAAAAAAAKA1WhX0PYOd4oDMdro//yb8BAAAAAAAAAAAAAAAAAAAAAOBsYGISAAAAAAAAAAAAAAAAAAAAAHB2MDEJAAAAAAAAAAAAAAAAAAAAADg7Nzsxud9MabrZy291safFYECLurONgstwR4PSQtjSB9aN6fXubkob+fUyVK1zCYz1bIL9bVS06xG3rutrV02x6e1znlho5pJltZPA9vgtfDU2NrWPuttDPfk1Q+/16iauP0Gc8lHGR+Js4AM2CgExtE7gcz7a3HeYZK83Zp0NVt/rjQdvMMa0QZ+w+VlBrL8Wt+9btXLVOHAF9huasj757i79DAYLre6bKTs+NWtjvxiwNH7fEnnI/NWPJduUnFx3g2mwD6dyKWmVTzb2KCUTuAyiDZr8isWy6cm2g+mCHVHw+HJrKasPBVdbvdGJyT39flnS8uW3VSkANJn9Yups1NcB7ap9XNJm9ZbVzDYQRptlB3VRd9uLy6/ZPnjNvgRxKqO5sl/TP0BzuKQfIC5koO8AANwuiCFNowl9Tpv77NtgT4uHES17a0qSRHzGvRmNBiE22dDrbCv/DmByKiP7vA3luQKKXIcDHQ4Jrcc7mnXDJtg7j++FspJkTRN2rvejk17EiZIJXAL+AMtgtJTfdDbTLs12Y1onqU+MdzPqHmeSq/hycymvDxV3W73RickOPX4yxXw+sr8AaCM72u7kn40B7ap9XNJmdZfVxDYQSptlB/VQd3uIza/JPnjNvgRx6kRTZa9uo414crN5T5o3Va5mcsk4gbhwAn0HAOBWQQxpHk3oc9rcZ98A+9+02vZp/jSkTqcjPo9Pc+pvV/TbM5uzmY5oN5lQX34PISsj+1hR5RIHOjR8fKYJK+xPIg540MsRn+SDljSh+9zEY/46cD34KtbuC9HzmvmgPHZiQx9LosnzIw2FmZivPk+Ilh/pvV0FX24qlfSh4GurysTkXmxpwrc2OC3FHOSWEavn+DLNjTLzm6WXS1fVWWMlDV/+fMoySyO/cvYLGqg37Xx2Nksr5FEs6jjHFahvz5KXXZ21zuRQr2H5hTwKIbDVMc23IMfxWPb3hsmbK1ddAmxcMp7osqo6tMpTgpwcmy95XJDKr9s8O5ZeIdBsWmOdtQv0Ouu+yfHoxFlPF2XrY5dXNH7+NMF2Rl1+7pjQU4cYXO1Kg9WBXZPZU29Xad3LtxtOc21aqJeeuUO2LL0s/5jQJW+WRn7ltDAWRvuHRW5zG8jyU/WaHRPJUmqJN6rMXEcm+6rXnOplb78OnL6alXfuepdJw1H1YNOVKruL7Ho1T+4X8rSgTHl6mra2vUJ+Ue3HRVp2GX8pqzefbnQbcXznw9HLzuqh5q/r3VYPs56z/FQfzI6JZCmti1OW/JxG0OU72SzNq2B/5Vi0jZg+hZ4G6fnRbkzJ4Y38DxzbZMzQz0f3l065PGW74o4Vi0xaxnq5GL+kIC7YZHdRRsZMBvmVE+EvPp8otmEfFe6nS/q1k5zernvfbcFat0wWVW+yrCPqubTck+hZerV+8riSRvdpD23QZ+NlzMpj/6r5qeXza6w2ytKrdZDHlTRmX5BfORFxwnXukv2Ku46ces8X2kbpGJXP16STzJ4L8b2g08KxIvY+x19+Xf7dBBkEjY8DNWDzuc4jfR4+6TF2Po7V92U5oeenn/JAFQw67vygHm1zk5BDevv8VFY0snSKnxTbqAq79mVJ/flTwP0JuBbDN/7wCrtX68oDMZT15QZTSR8ZAW21sGJy+fJK9PRJh8OBkjn7Pjo1Lr5Mc0XPx6XMYxoVlmkuR3w6NaFEttZsaedx+XNvSaNcGjssMIyW1FsnQp5DMqbd6EEGT9e5IkIOJvFJdtb5FGR/ILp/F/mJus9eHYHlhL2OHfo17tN2pWwXIWfRx79O3rqdvdDXsdweK7dLdw8fTJRTfrNXXRKexmWn2dFOh0idq7DgqS5ff7+nr1VxCW/e5iGUrrOW5mQfn2+6dRJWTxex9XHJyxt/Mu8T67XE+U8Z2eqza2jb4R30iHZz93YCZdsNp8k2RSwsZ9M89rzsctvaAOcS8SbMvuZ6uWQ307w4W7+u4mRH2zO1lzzl2o+LMv5ip4RuHDZKdWeL99VBnArzEVfbzGO3WdjYOI/TRt0Z0zcr55PJxk6GPpka5ndl26xbLrdPx7WfPIihJnvEg7jQ/r7DB5e93P10fX59olnjQTP+urnaoFunKab44/NpM23QZxtkTEG/YvZpFz5/9+kg5Lxd7+V1FKaTzJ6PpcZ0HFufE1J+Xf7dBBnaFAfKE9cu979XtKUeqTue6nCdsTF2zZN8uo6H9MR8Yzm6owGfwNUm71N8bVRj80qz7YSeA8dWoIlIn3hZkHCH/cY72ez35TYToo/AtsoCgyQ5sDwP/TlrVkfWhwm7ZLLO/u4f9NOTA9GEneHY0ufSaKRp0vwlyfzQP+aplp/HdY6LpspikEMrxyC7OJ+XnV+XP+apYz4frrP+nOXECSzXl8ajC396jqFuNlmcNk+P2W1qSFOmzloagw00OQ2o+XvrmWHQUan6+OVlAyTlegtangY5BCaZXf5yyoe3obwMersKrLsRX9pL2dSESZeqznyy2dK79JKmsbcbl81c57hoqiwGObRyqtg0X1aIje1yF9uASa8+vQXWR2tLBh357JvL095+edpc3jZ5nP50jnqXSVNCV0f4uVxa4/Wqn5Qpz5BGI01j16Vafh7XOS6aKotBjkibFfOzlx3lgwFlCwz+Uk5vprq4bGTA57sOEKeyrxV9RNON6XwOVf58/bS68a9qXp66aLrkpNfbbHbC53eG81pZNctVsK+vDjy/vPwGmbS8DHXy+Y0pjYahXlrdXXVx17PuGOoCcSH7eot9R6DsnrKLurZd68nHhk13Lvt59WlI47VRhklvrroFlqVi8I2iTVw6cdAGfbZBRqMMqh/4bGRLny9HxVdHlx+6znHRVFkMcpTRZSiazn06KHFe07tLD75zFXUS7Fs8ab7PqaF8jlEGM1eXwZbWVZ48Zm8j9esplr9//8q/OC6fy5Neq8rO2y2piVW5TfUyIPJg+WqfY91NOk5JEiYP8900Tf8wOV5j8BMHhTow3DK1A93ON4TVr1JfCbNX0Zc5rdRZWX0EtFWuD887Jrv0s0+0+9oT7b/47ts062bLr9lnVHySQ0OkqTI7fHpKgW+DNF2o2xO4zuUwySGWZu+IV60Svjp2ftG4v6WVfER687Gk/vgX1TthrthJst8saDGd0pR9bC8qDaMFs/uBvunWyQXrWaYtSeqxa0DbWT3QaDmh9bXewdA4myIW1k+E3JekQvssTwvirImL6Aptz0xD28+RiroxUN+4JgbEKTvFsWceq83qHBuLdrSkj+wBZfmk/k/fljM+v6vaZgPksvt0nX6HGFo/iAvno6JPVCLmfromvy5QZ33OQXXfj+rLK/t00/XJaYOMedCvhGL1d58Ogs679F5SR2V0UueY7gI28XIVGRy2vglC2+WGpoMRLSdrx64N6epL/l474xWb6alN3A30VZks34NY3Sg/Ab91djrp9q38+mSdrjoVW/762qiK2MoyffdggRIygWvBfO+uS6uxXN3MfWK8oq66zfiREF9uOz59eNqqgmdiMs+E1rLA0yfkHS7l6TzyIJBQ8jwmWo00o7vONQe5ZZXYnJq/HNS/rUE19mJ/bP6C0h9PT/T09kaf64k8d8u4fLOJOoltS/XWwdt2xmMmofKD2lVosk0RC+uguXJf3r7t5dK6QtvLaHq7r0++68Z7xKky+GxW59hY/7Hjrrui3vq9Ae/3cMnl9+nz+R1iaB0gLpyPZui2Whttq1+HUL5uZfvy9vv07YN+pcglxq5uvV9OR5f+vRO0Eb/PyYkcvqXtmz167BcvtOzP6am7p/2efbJ3QCbsb/7v8E22Bf6p8r4/nr/8U9JhefNmnPp6OJvXGW0nzzf17sFvyeaDlizuPj8OjxNtncd3mvfzv5uH+XLr8ejD21YVPBOTCf3ZEvX4YwCWp0TyjVWjhidL0vw7LAg80ttnohnddU7DJEfMEw4uAurY+TWm/vKDNhtWZn9M9ffTip3EE9lskPL5SMMO0428ojznfDKoJny+GaSTC9azTFuq2a7+tvOL3livuxzlnjK6FI2zKWLhOQiW+5KUsW9l6vTVC3IRXaHt2Qgu+0pU0o1K7eOaOBqp54u0PR9K28wTYLPaxsb7BT2s5PtdxBPNn/Q2DMjM53dV26xLrgD91Od3iKHnoD771EgZ+zaQSj5Ribj76Vr8ukCd9TkPpetWpi+v7NPN12c77wHQr3jx+btPByXPq3ovpaOSOqltTHdOm4RyFRkctr4R3O1Sn8hxqTnhwWc7o263m35GM9ry1cMj9rft/Y5l2Lyy/B0T9r42eoRP1hNN7vE4zfcg3JdvnZi2WpiY3PKXOcvGJWY4aUJpGxrS/YRl8rCQs5t72kzvqHv8bsKUZkB3Az3NkkUk8X3PjPjAhZXwm/quMjGyTwdB6d+OcwWkHK8nORbiqYX7Gp7kCqij2N5gSS8vK6KatnHdrmx24igBkuv0Rd3WoUM/eoFPechtGfgLkUV28mWmIVhtehZCfNOhkwr1LIdf3k5qJDbsV6nJrqFtZ/hG/AXvJzkvyfVtilh4Zjxym9uAmXrjTRn76sTI3p44a6K6rkyg7QVQY/upQim9FQixUU39XyyIUxr2tmmygctmjLrGxiyf5x7fNibbtomvUJyebGbF53cV26xXLod+otpPEcTQM4O4UJnL9R1uSt9P1+bXCm0YD5at2xFPv1Cggk+3QZ9tkFGCfqUMLn/36aDMeUXvpXVUUifCl+PHdMU+59w2KXJ1GVoUB0rj9Dkm+4BP5Mwpeeqyc3J1Ff/IK1SGb9lqSPlJ5tRn/80T9nfA6rRj3vJjZXjPotySRlPmB9n1mylx06STjL42miLiJV815hBNlYd/wHURdsgCAl/dl9lE+sTLVLY7bvPFA822WX8Y58ttoaw+YtpqYWKyP/9JHw/pDXR31WOJTtsBDN8Smh9vsrs02qVPAbk6nmKaHq3fszQdenxnwi35Um52/uGD7p+5sJLOI72ve7TqpvLc8b0Q5gmJOrjOGRBy0EmOFftW17Jadx05cnsDFnzr2tZg8nxvthPXy/ykl8HrFz0969tGDO9Tnftv3Lh91jTZnezzQ7WPEY9Nz4TTN706KVPPanjb0vBJPEU04vLyHrxOu0a0HbEUm2b1Pn0UyLVtilh4Znxy59uAkfPEmzL21QiSPaOMr56n3mWorCsDaHsB1NJ+qlBBbwacNuJ51TauiaQWPd9CnEpxtk3VBgE243qpZWy8/00vzF/ETY648UloPd4pPxTYcccGeb5sm3XJ5dNPZPvJgxh6Znxyf7O4EMcF+44ASt9P1+jXJ7huGj4eLF03hk+nFsr7dAv02QoZU9CvRBLg7774FX9e0XsFHZXTSckxnaHPOZtNbFxdhvbEgdI4fE5M3PFJyqWyskp+Huoeh3B95cqw/8w5pLeE24X5QXb9aEe9da6tONoon6h6nW3d71yNkgmcnc1U2ppP9G/T1X3dBzmpnvpEL2ur3OasP1zL/vCivnwpKugjhjt2s3xI/9zTYsCC7ji54ZdzVoXr6IHoPX6v6v1iQN0ZM1Jj34lQvm7fhzbqCHaNB7EQnAu0xxMmXaDtnR/4IPBxubZZx9hY5PHnWX/ycr+gQfcPPV9xzH1+uRBDwSVpc9/RZtmvCfRWL23Qp0lGfgz9CvDjHtMhnnw3/v37R//995/8Bm4V2Dke6EyH68PzjklQD3v6vdpSf/7U0ElJAOqGL2Mf0MD0ufojQE2WrclAbwCApoM41R7qGRuLLbj4e42UB1H3v1e07e/oxeQH/HMBX7DL9ZO68ju4FIgLoAnAD+sF+gTXBP6n09TfO5tgJ/gKAAC4wIrJSPYb1nkMI15iupnS3WhJ1OdbKzR1tWRKdN2+IW3UEewaC2IhOB9ojyeKukDbuwTwQeDj7G2z5rHxfjGlh9mStv0+8X3E+pM5vb+pWyldh3PLhRgKLkmb+w70e+WA3uqlDfpEvwKiCRzTIZ58L7Aq7HsAO8cDnelwfSgTkwAAAAAAAAAAAAAAAAAAAHFg8uV7ADvHA53p/Pv3j/5/2++zY23wOnQAAAAASUVORK5CYII=;" vertex="1" parent="1">
          <mxGeometry x="530" y="320" width="1390" height="75.95" as="geometry" />
        </mxCell>
        <mxCell id="e3uVdYMobHJducTgOgBb-5" value="" style="rounded=0;whiteSpace=wrap;html=1;fillColor=none;strokeColor=#6c8ebf;" vertex="1" parent="1">
          <mxGeometry x="140" y="230" width="220" height="20" as="geometry" />
        </mxCell>
        <mxCell id="e3uVdYMobHJducTgOgBb-7" value="" style="rounded=0;whiteSpace=wrap;html=1;fillColor=none;strokeColor=#82b366;" vertex="1" parent="1">
          <mxGeometry x="130" y="270" width="220" height="20" as="geometry" />
        </mxCell>
        <mxCell id="e3uVdYMobHJducTgOgBb-8" value="" style="rounded=0;whiteSpace=wrap;html=1;fillColor=none;strokeColor=#d79b00;" vertex="1" parent="1">
          <mxGeometry x="130" y="310" width="220" height="20" as="geometry" />
        </mxCell>
        <mxCell id="e3uVdYMobHJducTgOgBb-9" value="" style="endArrow=classic;html=1;rounded=0;exitX=1;exitY=0.25;exitDx=0;exitDy=0;entryX=0;entryY=0.5;entryDx=0;entryDy=0;" edge="1" parent="1" source="e3uVdYMobHJducTgOgBb-5" target="e3uVdYMobHJducTgOgBb-2">
          <mxGeometry width="50" height="50" relative="1" as="geometry">
            <mxPoint x="730" y="230" as="sourcePoint" />
            <mxPoint x="490" y="60" as="targetPoint" />
            <Array as="points">
              <mxPoint x="410" y="235" />
              <mxPoint x="410" y="68" />
            </Array>
          </mxGeometry>
        </mxCell>
        <mxCell id="e3uVdYMobHJducTgOgBb-10" value="" style="endArrow=classic;html=1;rounded=0;exitX=1;exitY=0.5;exitDx=0;exitDy=0;entryX=0;entryY=0.75;entryDx=0;entryDy=0;" edge="1" parent="1" source="e3uVdYMobHJducTgOgBb-7" target="e3uVdYMobHJducTgOgBb-3">
          <mxGeometry width="50" height="50" relative="1" as="geometry">
            <mxPoint x="370" y="245" as="sourcePoint" />
            <mxPoint x="540" y="78" as="targetPoint" />
            <Array as="points">
              <mxPoint x="420" y="280" />
              <mxPoint x="420" y="255" />
            </Array>
          </mxGeometry>
        </mxCell>
        <mxCell id="e3uVdYMobHJducTgOgBb-11" value="" style="endArrow=classic;html=1;rounded=0;exitX=1;exitY=0.5;exitDx=0;exitDy=0;entryX=0;entryY=0.5;entryDx=0;entryDy=0;" edge="1" parent="1" source="e3uVdYMobHJducTgOgBb-8" target="e3uVdYMobHJducTgOgBb-4">
          <mxGeometry width="50" height="50" relative="1" as="geometry">
            <mxPoint x="360" y="290" as="sourcePoint" />
            <mxPoint x="540" y="265" as="targetPoint" />
            <Array as="points">
              <mxPoint x="430" y="320" />
              <mxPoint x="430" y="360" />
            </Array>
          </mxGeometry>
        </mxCell>
      </root>
    </mxGraphModel>
  </diagram>
</mxfile>
